<?xml version="1.0" encoding="utf-8"?>
<!-- Generator: Adobe Illustrator 24.1.0, SVG Export Plug-In . SVG Version: 6.00 Build 0)  -->
<svg version="1.1" id="Layer_1" xmlns="http://www.w3.org/2000/svg" xmlns:xlink="http://www.w3.org/1999/xlink" x="0px" y="0px"
	 viewBox="0 0 40 40" style="enable-background:new 0 0 40 40;" xml:space="preserve">
<style type="text/css">
	.st0{fill:#CBE763;}
</style>
<path class="st0" d="M36,8H4C1.8,8,0,6.2,0,4v0c0-2.2,1.8-4,4-4h32c2.2,0,4,1.8,4,4v0C40,6.2,38.2,8,36,8z"/>
<path class="st0" d="M36,40H4c-2.2,0-4-1.8-4-4v0c0-2.2,1.8-4,4-4h32c2.2,0,4,1.8,4,4v0C40,38.2,38.2,40,36,40z"/>
<path class="st0" d="M36,24H4c-2.2,0-4-1.8-4-4v0c0-2.2,1.8-4,4-4h32c2.2,0,4,1.8,4,4v0C40,22.2,38.2,24,36,24z"/>
</svg>
