<?xml version="1.0" encoding="utf-8"?>
<!-- Generator: Adobe Illustrator 24.3.0, SVG Export Plug-In . SVG Version: 6.00 Build 0)  -->
<svg version="1.1" id="Burger" xmlns="http://www.w3.org/2000/svg" xmlns:xlink="http://www.w3.org/1999/xlink" x="0px" y="0px"
	 viewBox="0 0 48 48" style="enable-background:new 0 0 48 48;" xml:space="preserve">
<style type="text/css">
	.st0{fill:#FF6663;}
</style>
<g>
	<path class="st0" d="M16.9,20h14.2c0.5,0,0.9-0.4,0.9-1s-0.4-1-0.9-1H16.9c-0.5,0-0.9,0.4-0.9,1S16.4,20,16.9,20z"/>
	<path class="st0" d="M31.1,23.1H16.9c-0.5,0-0.9,0.4-0.9,1s0.4,1,0.9,1h14.2c0.5,0,0.9-0.4,0.9-1C32,23.6,31.6,23.1,31.1,23.1z"/>
	<path class="st0" d="M31.1,28H16.9c-0.5,0-0.9,0.4-0.9,1s0.4,1,0.9,1h14.2c0.5,0,0.9-0.4,0.9-1S31.6,28,31.1,28z"/>
</g>
</svg>
