<?xml version="1.0" encoding="utf-8"?>
<!-- Generator: Adobe Illustrator 24.3.0, SVG Export Plug-In . SVG Version: 6.00 Build 0)  -->
<svg version="1.1" id="Email" xmlns="http://www.w3.org/2000/svg" xmlns:xlink="http://www.w3.org/1999/xlink" x="0px" y="0px"
	 viewBox="0 0 48 48" style="enable-background:new 0 0 48 48;" xml:space="preserve">
<style type="text/css">
	.st0{fill:#1F1F3A;}
	.st1{fill:#FF6561;}
</style>
<path class="st0" d="M24,48L24,48C10.7,48,0,37.3,0,24l0,0C0,10.7,10.7,0,24,0l0,0c13.3,0,24,10.7,24,24l0,0C48,37.3,37.3,48,24,48z
	"/>
<g>
	<path class="st1" d="M20.4,16.9L20.4,16.9L20.4,16.9 M19.9,17.3c0.1,1.5,0.6,3,1.3,4.4c1.1,2.2,2.9,4,5.1,5.1
		c1.4,0.7,2.9,1.2,4.4,1.3c-1.5,1.8-3.7,2.9-6,2.9c-0.2,0-0.4,0-0.6,0c-3.7-0.3-6.8-3.4-7.1-7.1C16.8,21.3,17.9,18.9,19.9,17.3
		 M20.2,15c-0.3,0-0.7,0.1-0.9,0.3c-2.8,1.9-4.5,5.1-4.2,8.7c0.3,4.7,4.2,8.6,8.9,8.9c0.2,0,0.5,0,0.7,0c3.3,0,6.3-1.7,8-4.3
		c0.7-1.1,0-2.6-1.3-2.6c-1.4,0-2.8-0.3-4.3-1.1c-1.8-0.9-3.3-2.4-4.2-4.2c-0.8-1.5-1.1-2.9-1.1-4.3C21.8,15.6,21,15,20.2,15
		L20.2,15z"/>
</g>
</svg>
