<?xml version="1.0" encoding="utf-8"?>
<!-- Generator: Adobe Illustrator 24.3.0, SVG Export Plug-In . SVG Version: 6.00 Build 0)  -->
<svg version="1.1" id="Phone" xmlns="http://www.w3.org/2000/svg" xmlns:xlink="http://www.w3.org/1999/xlink" x="0px" y="0px"
	 viewBox="0 0 48 48" style="enable-background:new 0 0 48 48;" xml:space="preserve">
<style type="text/css">
	.st0{fill:#FF6561;}
</style>
<g id="Path_29" transform="translate(-262.265 -203.995)">
	<path class="st0" d="M289,233L289,233c-1.5,0-3.2-0.9-5-2.7c-1.5-1.5-2.4-3-2.7-4.4c-0.2-1,0.1-1.8,0.3-2.3
		c0.1-0.1,0.1-0.3,0.1-0.4l0.3-0.3c0.2,0,0.6,0.2,0.8,0.4l1.5,1.5c0.1,0.1,0.2,0.3,0.2,0.3l-1,1l-0.3,0.3v0.4c0,0.4,0.2,1.2,1.6,2.7
		c1.3,1.3,2.2,1.6,2.6,1.6l0,0l0,0h0.4l0.3-0.3l1-1l0,0c0.1,0,0.2,0,0.3,0.2l1.5,1.5c0.2,0.2,0.4,0.6,0.4,0.8l-0.3,0.3
		c-0.1,0-0.3,0.1-0.4,0.1C290.2,232.8,289.7,233,289,233z"/>
	<path class="st0" d="M289,232c0.3,0,0.6-0.1,0.8-0.1l-0.7-0.7l-0.4,0.4c-0.1,0.1-0.3,0.2-0.4,0.3C288.5,232,288.8,232,289,232
		 M282.3,226c0.1-0.2,0.2-0.3,0.3-0.4l0.4-0.4l-0.7-0.7c-0.1,0.4-0.2,0.8-0.1,1.3C282.3,225.8,282.3,225.9,282.3,226 M289,234
		c-1.4,0-3.3-0.6-5.7-3c-4.4-4.4-2.7-7.2-2.5-8c0-0.2,0.1-0.3,0.2-0.4l0.4-0.4c0.1-0.1,0.3-0.2,0.5-0.2c0.5,0,1.2,0.3,1.6,0.7
		l1.5,1.5c0.5,0.5,0.6,1.3,0.2,1.7l-1.1,1.1c0,0,0,0.6,1.3,1.9c1.3,1.3,1.9,1.3,1.9,1.3l0,0l1.1-1.1c0.2-0.2,0.4-0.3,0.7-0.3
		c0.4,0,0.7,0.2,1,0.5l1.5,1.5c0.5,0.5,1,1.6,0.5,2.1l-0.4,0.4c-0.1,0.1-0.3,0.2-0.4,0.2C290.9,233.6,290.1,234,289,234z"/>
</g>
</svg>
