<?xml version="1.0" encoding="utf-8"?>
<!-- Generator: Adobe Illustrator 26.3.1, SVG Export Plug-In . SVG Version: 6.00 Build 0)  -->
<svg version="1.1" id="Layer_1" xmlns="http://www.w3.org/2000/svg" xmlns:xlink="http://www.w3.org/1999/xlink" x="0px" y="0px"
	 viewBox="0 0 692 441.1" style="enable-background:new 0 0 692 441.1;" xml:space="preserve">
<style type="text/css">
	.st0{fill:#FF6561;}
	.st1{fill:#3E9A9E;}
</style>
<path class="st0" d="M394,91.2c0.4,9.2-2.5,18.8-7.9,25.8c-1.7,2.1-4.2,2.9-6.7,2.1c-4.6-1.7-16.7-7.1-21.7-12.1
	c-0.8-0.8-0.8-2.9,0-4.2c4.6-5,19.2-18.8,28.8-22.5C391.9,78.3,393.5,84.2,394,91.2z"/>
<path class="st0" d="M306,80.8c10,3.8,23.8,17.1,28.8,22.5c0.8,0.8,0.8,2.9,0,4.2c-4.6,4.6-17.1,10.4-21.7,12.1
	c-2.5,0.8-5,0-6.7-2.1c-5-7.1-8.3-16.7-7.9-25.8C298.5,84.2,299.7,78.3,306,80.8L306,80.8z"/>
<path class="st1" d="M338.9,177.1l-70-70c-1.7-1.7-4.2-2.9-7.1-2.9h-13.3c-2.1,0-3.3,2.5-1.7,4.2l90.9,90.9c1.7,1.7,4.2,0.4,4.2-1.7
	v-13.3C341.8,181.3,341,178.8,338.9,177.1z"/>
<path class="st1" d="M353.1,22.9l70,70c1.7,1.7,4.2,2.9,7.1,2.9h13.3c2.1,0,3.3-2.5,1.7-4.2L354.3,0.8c-1.7-1.7-4.2-0.4-4.2,1.7
	v13.3C350.2,18.7,351,21.2,353.1,22.9z"/>
<path class="st1" d="M268.9,92.9l70-70c1.7-1.7,2.9-4.2,2.9-7.1V2.5c0-2.1-2.5-3.3-4.2-1.7l-90.9,90.9c-1.7,1.7-0.4,4.2,1.7,4.2
	h13.3C264.7,95.8,267.2,95,268.9,92.9z"/>
<path class="st1" d="M423.1,107.1l-70,70c-1.7,1.7-2.9,4.2-2.9,7.1v13.3c0,2.1,2.5,3.3,4.2,1.7l90.9-90.9c1.7-1.7,0.4-4.2-1.7-4.2
	h-13.3C427.3,104.2,424.8,105,423.1,107.1L423.1,107.1z"/>
<path class="st0" d="M45.5,441.1c-9.1,0-17.9-1.5-26.3-4.4c-8.3-3-14.7-6.9-19.3-11.6l5.1-10c4.3,4.2,10.1,7.8,17.3,10.7
	c7.4,2.8,15.1,4.2,23.1,4.2c7.7,0,14-0.9,18.7-2.8c4.9-2,8.5-4.6,10.7-7.9c2.3-3.3,3.5-6.9,3.5-10.9c0-4.8-1.4-8.6-4.2-11.6
	c-2.7-2.9-6.2-5.2-10.7-6.8c-4.4-1.8-9.3-3.3-14.7-4.6c-5.4-1.3-10.7-2.6-16.1-4c-5.4-1.5-10.3-3.5-14.9-6
	c-4.4-2.5-8.1-5.7-10.9-9.6c-2.7-4.1-4-9.4-4-15.9c0-6.1,1.6-11.6,4.7-16.6c3.3-5.1,8.2-9.2,14.9-12.3c6.7-3.2,15.2-4.7,25.6-4.7
	c6.9,0,13.7,1,20.5,3c6.8,1.9,12.6,4.5,17.5,7.9l-4.4,10.3c-5.3-3.5-10.9-6.1-16.8-7.7c-5.8-1.6-11.5-2.5-17-2.5
	c-7.4,0-13.4,1-18.2,3c-4.8,2-8.4,4.7-10.7,8.1c-2.2,3.3-3.3,7-3.3,11.2c0,4.8,1.3,8.6,4,11.6c2.8,2.9,6.4,5.2,10.9,6.8
	c4.6,1.6,9.5,3.1,14.9,4.4c5.4,1.3,10.7,2.7,15.9,4.2c5.4,1.5,10.3,3.5,14.7,6c4.6,2.3,8.2,5.5,10.9,9.5c2.8,4,4.2,9.2,4.2,15.6
	c0,6-1.6,11.5-4.9,16.6c-3.3,5-8.3,9.1-15.1,12.3C64.6,439.5,56.1,441.1,45.5,441.1z M128.3,440V317.4h45.9
	c10.4,0,19.3,1.7,26.8,5.1c7.5,3.3,13.2,8.1,17.2,14.4c4.1,6.2,6.1,13.7,6.1,22.6c0,8.6-2,16.1-6.1,22.4c-4,6.2-9.7,11-17.2,14.4
	c-7.5,3.4-16.4,5.1-26.8,5.1h-38.7l5.8-6.1V440H128.3z M141.2,396.2l-5.8-6.3h38.4c12.3,0,21.5-2.6,27.9-7.9
	c6.4-5.4,9.6-12.9,9.6-22.6c0-9.8-3.2-17.4-9.6-22.8c-6.3-5.4-15.6-8.1-27.9-8.1h-38.4l5.8-6.1V396.2z M261.1,440V317.4h13V440
	H261.1z M322.7,440V317.4h49.9c13.1,0,24.5,2.6,34.3,7.9c9.9,5.1,17.6,12.3,23.1,21.5c5.5,9.2,8.2,19.9,8.2,31.9
	c0,12-2.7,22.7-8.2,31.9c-5.5,9.2-13.2,16.5-23.1,21.7c-9.8,5.1-21.3,7.7-34.3,7.7H322.7z M335.6,428.8h36.3
	c10.9,0,20.3-2.1,28.2-6.3c8.1-4.3,14.3-10.2,18.7-17.7c4.4-7.6,6.7-16.3,6.7-26.1c0-9.9-2.2-18.6-6.7-26.1
	c-4.4-7.5-10.7-13.3-18.7-17.5c-7.9-4.3-17.3-6.5-28.2-6.5h-36.3V428.8z M487.7,372.2h64.8v11h-64.8V372.2z M489.1,428.8h73.8V440
	h-86.7V317.4h84.1v11.2h-71.1V428.8z M629.8,440v-45.5l3,8.1l-52-85.1h13.8l45.7,74.8H633l45.7-74.8h13l-52,85.1l3-8.1V440H629.8z"
	/>
<path class="st1" d="M10.7,282.3c-2,0-3.9-0.4-5.5-1.3c-1.6-0.9-2.9-2.1-3.8-3.7C0.5,275.7,0,274,0,272s0.5-3.7,1.4-5.3
	c0.9-1.5,2.2-2.8,3.8-3.7c1.6-0.9,3.5-1.3,5.5-1.3c1.6,0,3.1,0.2,4.3,0.7c1.3,0.5,2.4,1.2,3.3,2.2l-1.6,1.7
	c-0.8-0.8-1.7-1.4-2.7-1.8c-1-0.4-2.1-0.6-3.2-0.6c-1.6,0-3,0.4-4.2,1.1c-1.3,0.7-2.2,1.6-2.9,2.8c-0.7,1.2-1.1,2.6-1.1,4.1
	s0.4,2.9,1.1,4.2c0.7,1.2,1.7,2.2,2.9,2.8c1.3,0.7,2.7,1,4.2,1c1.2,0,2.2-0.2,3.2-0.6c1-0.4,1.9-1,2.7-1.8l1.6,1.7
	c-0.9,1-2,1.7-3.3,2.2C13.7,282,12.3,282.3,10.7,282.3z M52.9,282.3c-2,0-3.9-0.4-5.5-1.3c-1.6-0.9-2.9-2.1-3.9-3.7
	c-0.9-1.6-1.4-3.3-1.4-5.3s0.5-3.7,1.4-5.3c0.9-1.5,2.2-2.8,3.9-3.7c1.6-0.9,3.5-1.3,5.5-1.3c2.1,0,3.9,0.5,5.5,1.3
	c1.6,0.9,2.9,2.1,3.8,3.7c0.9,1.5,1.4,3.3,1.4,5.3s-0.5,3.7-1.4,5.3c-0.9,1.5-2.2,2.8-3.8,3.7C56.8,281.8,55,282.3,52.9,282.3z
	 M52.9,280.1c1.6,0,3-0.3,4.2-1c1.2-0.7,2.2-1.7,2.9-2.9c0.7-1.2,1.1-2.6,1.1-4.2s-0.4-2.9-1.1-4.1c-0.7-1.2-1.7-2.2-2.9-2.8
	c-1.2-0.7-2.6-1.1-4.2-1.1c-1.6,0-3,0.4-4.2,1.1c-1.2,0.7-2.2,1.6-2.9,2.8c-0.7,1.2-1.1,2.6-1.1,4.1s0.4,2.9,1.1,4.2
	c0.7,1.2,1.7,2.2,2.9,2.9C50,279.7,51.4,280.1,52.9,280.1z M90.5,282.1V262h2.2l9.1,15.2h-1l9-15.2h2.2v20.1h-2.5v-16.2h0.4
	l-8.1,13.6h-1.2l-8.2-13.6h0.6v16.2H90.5z M140.7,282.1V262h7.8c1.8,0,3.2,0.3,4.5,0.8c1.3,0.5,2.2,1.3,2.9,2.4c0.7,1,1,2.3,1,3.7
	c0,1.4-0.3,2.7-1,3.7c-0.7,1-1.7,1.8-2.9,2.4c-1.2,0.5-2.7,0.8-4.5,0.8h-6.4l1.1-1.2v7.4H140.7z M143.2,274.9l-1-1.2h6.1
	c1.9,0,3.4-0.4,4.4-1.2c1-0.9,1.5-2,1.5-3.6c0-1.5-0.5-2.7-1.5-3.6c-1-0.8-2.5-1.2-4.4-1.2h-6.1l1-1.2V274.9z M192.7,282.3
	c-2,0-3.9-0.4-5.5-1.3c-1.6-0.9-2.9-2.1-3.9-3.7c-0.9-1.6-1.4-3.3-1.4-5.3s0.5-3.7,1.4-5.3c0.9-1.5,2.2-2.8,3.9-3.7
	c1.6-0.9,3.5-1.3,5.5-1.3c2.1,0,3.9,0.5,5.5,1.3c1.6,0.9,2.9,2.1,3.8,3.7c0.9,1.5,1.4,3.3,1.4,5.3s-0.5,3.7-1.4,5.3
	c-0.9,1.5-2.2,2.8-3.8,3.7C196.6,281.8,194.7,282.3,192.7,282.3z M192.7,280.1c1.6,0,3-0.3,4.2-1c1.2-0.7,2.2-1.7,2.9-2.9
	c0.7-1.2,1.1-2.6,1.1-4.2s-0.4-2.9-1.1-4.1c-0.7-1.2-1.7-2.2-2.9-2.8c-1.2-0.7-2.6-1.1-4.2-1.1c-1.6,0-3,0.4-4.2,1.1
	c-1.2,0.7-2.2,1.6-2.9,2.8c-0.7,1.2-1.1,2.6-1.1,4.1s0.4,2.9,1.1,4.2c0.7,1.2,1.7,2.2,2.9,2.9C189.7,279.7,191.1,280.1,192.7,280.1z
	 M230.2,282.1V262h2.1l13.6,16.9h-1V262h2.6v20.1h-2.1l-13.6-16.9h1v16.9H230.2z M278.4,270.8h10.8v2.1h-10.8V270.8z M278.8,279.9
	h12v2.1h-14.6V262h14.2v2.1h-11.6V279.9z M317.7,282.1V262h2.1l13.6,16.9h-1V262h2.6v20.1h-2.1l-13.6-16.9h1v16.9H317.7z
	 M367.3,282.1v-17.9h-7.1V262h16.7v2.1h-7.1v17.9H367.3z M432.7,282.1V262h2.6v17.9h11.2v2.1H432.7z M471.8,282.1V262h2.6v20.1
	H471.8z M503.1,282.1V262h8.9c2.3,0,4.1,0.5,5.4,1.3c1.3,0.9,1.9,2.2,1.9,3.8c0,1.6-0.6,2.9-1.7,3.8c-1.1,0.9-2.6,1.3-4.3,1.3
	l0.5-0.8c2.1,0,3.7,0.4,4.9,1.3c1.2,0.9,1.7,2.2,1.7,3.9c0,1.7-0.7,3-2,4c-1.3,0.9-3.3,1.4-5.9,1.4H503.1z M505.7,280.1h6.9
	c1.7,0,3-0.3,3.9-0.9c0.9-0.6,1.3-1.5,1.3-2.7c0-1.3-0.4-2.2-1.3-2.7c-0.9-0.6-2.2-0.9-3.9-0.9h-7.3v-2h6.6c1.6,0,2.8-0.3,3.6-0.9
	c0.9-0.6,1.3-1.5,1.3-2.6c0-1.1-0.4-2-1.3-2.6c-0.9-0.6-2.1-0.9-3.6-0.9h-6.2V280.1z M547.1,282.1V262h7.8c1.8,0,3.2,0.3,4.5,0.8
	c1.3,0.5,2.2,1.3,2.9,2.4c0.7,1,1,2.3,1,3.7c0,1.4-0.3,2.7-1,3.7s-1.7,1.8-2.9,2.4c-1.2,0.5-2.7,0.8-4.5,0.8h-6.4l1.1-1.1v7.4H547.1
	z M560.9,282.1l-5.3-7.3h2.8l5.2,7.3H560.9z M549.7,274.9l-1-1.2h6.1c1.9,0,3.4-0.4,4.4-1.2c1-0.9,1.5-2,1.5-3.6
	c0-1.5-0.5-2.7-1.5-3.6c-1-0.8-2.5-1.2-4.4-1.2h-6.1l1-1.2V274.9z M586.9,282.1l9.3-20.1h2.5l9.3,20.1h-2.6l-8.4-18.7h0.9l-8.5,18.7
	H586.9z M590.9,276.9l0.7-2.1H603l0.7,2.1H590.9z M633.2,282.1V262h7.8c1.8,0,3.2,0.3,4.5,0.8c1.3,0.5,2.2,1.3,2.9,2.4
	c0.7,1,1,2.3,1,3.7c0,1.4-0.3,2.7-1,3.7c-0.7,1-1.7,1.8-2.9,2.4c-1.2,0.5-2.7,0.8-4.5,0.8h-6.4l1.1-1.1v7.4H633.2z M646.9,282.1
	l-5.3-7.3h2.8l5.2,7.3H646.9z M635.7,274.9l-1-1.2h6.1c1.9,0,3.4-0.4,4.4-1.2c1-0.9,1.5-2,1.5-3.6c0-1.5-0.5-2.7-1.5-3.6
	c-1-0.8-2.5-1.2-4.4-1.2h-6.1l1-1.2V274.9z M681.2,282.1v-7.5l0.5,1.7l-8.8-14.3h2.7l7.6,12.2h-1.3l7.6-12.2h2.6l-8.8,14.3l0.5-1.7
	v7.5H681.2z"/>
</svg>
