<?xml version="1.0" encoding="utf-8"?>
<!-- Generator: Adobe Illustrator 26.2.1, SVG Export Plug-In . SVG Version: 6.00 Build 0)  -->
<svg version="1.1" id="Layer_1" xmlns="http://www.w3.org/2000/svg" xmlns:xlink="http://www.w3.org/1999/xlink" x="0px" y="0px"
	 viewBox="0 0 1200 387" style="enable-background:new 0 0 1200 387;" xml:space="preserve">
<style type="text/css">
	.st0{fill:#FF6561;}
	.st1{fill:#3E9A9E;}
</style>
<path class="st0" d="M286.3,176.6c0.8,17.7-4.8,36.3-15.3,50c-3.2,4-8.1,5.6-12.9,4c-8.9-3.2-32.2-13.7-41.9-23.4
	c-1.6-1.6-1.6-5.6,0-8.1c8.9-9.7,37.1-36.3,55.6-43.5C282.3,151.6,285.5,162.9,286.3,176.6z"/>
<path class="st0" d="M116,156.4c19.4,7.3,46,33.1,55.6,43.5c1.6,1.6,1.6,5.6,0,8.1c-8.9,8.9-33.1,20.2-41.9,23.4
	c-4.8,1.6-9.7,0-12.9-4c-9.7-13.7-16.1-32.3-15.3-50C101.5,162.9,103.9,151.6,116,156.4L116,156.4z"/>
<path class="st1" d="M179.8,342.7L44.3,207.2c-3.2-3.2-8.1-5.6-13.7-5.6H4.8c-4,0-6.4,4.8-3.2,8.1l175.8,175.8
	c3.2,3.2,8.1,0.8,8.1-3.2v-25.8C185.4,350.8,183.8,346,179.8,342.7z"/>
<path class="st1" d="M207.2,44.3l135.5,135.5c3.2,3.2,8.1,5.6,13.7,5.6h25.8c4,0,6.4-4.8,3.2-8.1L209.6,1.5
	c-3.2-3.2-8.1-0.8-8.1,3.2v25.8C201.6,36.2,203.2,41,207.2,44.3z"/>
<path class="st1" d="M44.3,179.8L179.8,44.3c3.2-3.2,5.6-8.1,5.6-13.7V4.8c0-4-4.8-6.4-8.1-3.2L1.5,177.4c-3.2,3.2-0.8,8.1,3.2,8.1
	h25.8C36.2,185.4,41,183.8,44.3,179.8z"/>
<path class="st1" d="M342.7,207.2L207.2,342.7c-3.2,3.2-5.6,8.1-5.6,13.7v25.8c0,4,4.8,6.4,8.1,3.2l175.8-175.8
	c3.2-3.2,0.8-8.1-3.2-8.1h-25.8C350.8,201.6,346,203.2,342.7,207.2L342.7,207.2z"/>
<path class="st0" d="M561.1,279c-9,0-17.6-1.4-26-4.3c-8.2-3-14.5-6.8-19-11.4l5-9.9c4.3,4.2,10,7.7,17.1,10.6
	c7.3,2.8,14.9,4.2,22.8,4.2c7.6,0,13.8-0.9,18.5-2.8c4.8-2,8.4-4.6,10.6-7.8c2.3-3.2,3.5-6.8,3.5-10.7c0-4.7-1.4-8.5-4.2-11.4
	c-2.7-2.9-6.2-5.1-10.6-6.7c-4.4-1.7-9.2-3.2-14.5-4.5c-5.3-1.3-10.6-2.6-15.9-4c-5.3-1.5-10.2-3.5-14.7-5.9
	c-4.4-2.4-8-5.6-10.7-9.5c-2.7-4-4-9.3-4-15.7c0-6,1.6-11.5,4.7-16.4c3.2-5.1,8.1-9.1,14.7-12.1c6.6-3.1,15-4.7,25.3-4.7
	c6.8,0,13.6,1,20.2,2.9c6.7,1.8,12.5,4.4,17.3,7.8l-4.3,10.2c-5.2-3.5-10.7-6-16.6-7.6c-5.8-1.6-11.4-2.4-16.8-2.4
	c-7.3,0-13.3,1-18,2.9s-8.2,4.6-10.6,8c-2.2,3.2-3.3,6.9-3.3,11.1c0,4.7,1.3,8.5,4,11.4c2.8,2.9,6.3,5.1,10.7,6.7
	c4.5,1.6,9.4,3.1,14.7,4.3s10.6,2.7,15.7,4.2c5.3,1.5,10.1,3.5,14.5,5.9c4.5,2.3,8.1,5.4,10.7,9.3c2.8,3.9,4.2,9.1,4.2,15.4
	c0,5.9-1.6,11.4-4.8,16.4c-3.2,5-8.2,9-14.9,12.1C580,277.5,571.5,279,561.1,279z M642.8,278V156.9h45.3c10.3,0,19.1,1.7,26.5,5
	c7.4,3.2,13,8,17,14.2c4,6.1,6.1,13.6,6.1,22.3c0,8.5-2,15.9-6.1,22.1c-3.9,6.1-9.6,10.8-17,14.2c-7.4,3.3-16.2,5-26.5,5h-38.2
	l5.7-6.1V278H642.8z M655.6,234.8l-5.7-6.2h37.9c12.1,0,21.3-2.6,27.5-7.8c6.3-5.3,9.5-12.7,9.5-22.3c0-9.7-3.2-17.2-9.5-22.5
	c-6.2-5.3-15.4-8-27.5-8h-37.9l5.7-6.1V234.8z M773.9,278V156.9h12.8V278H773.9z M834.8,278V156.9h49.3c12.9,0,24.2,2.6,33.9,7.8
	c9.8,5.1,17.4,12.2,22.8,21.3c5.4,9.1,8.1,19.6,8.1,31.5s-2.7,22.4-8.1,31.5c-5.4,9.1-13,16.3-22.8,21.5c-9.7,5.1-21,7.6-33.9,7.6
	H834.8z M847.6,266.9h35.8c10.7,0,20-2.1,27.9-6.2c8-4.3,14.1-10.1,18.5-17.5c4.4-7.5,6.6-16.1,6.6-25.8c0-9.8-2.2-18.4-6.6-25.8
	s-10.6-13.1-18.5-17.3c-7.8-4.3-17.1-6.4-27.9-6.4h-35.8V266.9z M997.8,211h64v10.9h-64V211z M999.2,266.9h72.8V278h-85.6V156.9h83
	V168h-70.2V266.9z M1138.1,278v-45l2.9,8l-51.4-84.1h13.7l45.2,73.9h-7.3l45.2-73.9h12.8l-51.4,84.1l2.9-8v45H1138.1z"/>
<path class="st1" d="M520.4,101.2c-2,0-3.9-0.4-5.5-1.3c-1.6-0.9-2.9-2.1-3.8-3.6c-0.9-1.6-1.4-3.3-1.4-5.3c0-2,0.5-3.7,1.4-5.2
	c0.9-1.5,2.2-2.8,3.8-3.6c1.6-0.9,3.5-1.3,5.5-1.3c1.6,0,3,0.2,4.3,0.7c1.3,0.5,2.4,1.2,3.3,2.2l-1.6,1.7c-0.8-0.8-1.7-1.4-2.7-1.8
	c-1-0.4-2.1-0.6-3.2-0.6c-1.6,0-3,0.4-4.2,1.1c-1.3,0.7-2.2,1.6-2.9,2.8c-0.7,1.2-1.1,2.6-1.1,4.1c0,1.5,0.4,2.9,1.1,4.1
	c0.7,1.2,1.7,2.1,2.9,2.8c1.3,0.7,2.7,1,4.2,1c1.2,0,2.2-0.2,3.2-0.6c1-0.4,1.9-1,2.7-1.8l1.6,1.7c-0.9,1-2,1.7-3.3,2.2
	C523.4,100.9,522,101.2,520.4,101.2z M562.5,101.2c-2,0-3.9-0.4-5.5-1.3c-1.6-0.9-2.9-2.1-3.9-3.6c-0.9-1.6-1.4-3.3-1.4-5.3
	c0-2,0.5-3.7,1.4-5.2c0.9-1.5,2.2-2.8,3.9-3.6c1.6-0.9,3.5-1.3,5.5-1.3c2.1,0,3.9,0.4,5.5,1.3c1.6,0.9,2.9,2.1,3.8,3.6
	c0.9,1.5,1.4,3.3,1.4,5.2c0,2-0.5,3.7-1.4,5.3c-0.9,1.5-2.2,2.8-3.8,3.6C566.4,100.7,564.5,101.2,562.5,101.2z M562.5,99
	c1.6,0,3-0.3,4.2-1c1.2-0.7,2.2-1.7,2.9-2.9c0.7-1.2,1.1-2.6,1.1-4.1c0-1.5-0.4-2.9-1.1-4.1c-0.7-1.2-1.7-2.1-2.9-2.8
	c-1.2-0.7-2.6-1.1-4.2-1.1c-1.6,0-3,0.4-4.2,1.1c-1.2,0.7-2.2,1.6-2.9,2.8c-0.7,1.2-1.1,2.6-1.1,4.1c0,1.5,0.4,2.9,1.1,4.1
	c0.7,1.2,1.7,2.2,2.9,2.9C559.5,98.6,560.9,99,562.5,99z M599.9,101V81h2.2l9,15.2h-1l9-15.2h2.2v20h-2.4V84.9h0.4l-8.1,13.6H610
	l-8.2-13.6h0.6V101H599.9z M650,101V81h7.8c1.7,0,3.2,0.3,4.5,0.8c1.3,0.5,2.2,1.3,2.9,2.4c0.7,1,1,2.3,1,3.7c0,1.4-0.3,2.7-1,3.7
	c-0.7,1-1.7,1.8-2.9,2.4c-1.2,0.5-2.7,0.8-4.5,0.8h-6.3l1.1-1.2v7.4H650z M652.5,93.8l-1-1.2h6.1c1.9,0,3.4-0.4,4.4-1.2
	c1-0.9,1.5-2,1.5-3.5c0-1.5-0.5-2.7-1.5-3.5s-2.5-1.2-4.4-1.2h-6.1l1-1.2V93.8z M701.8,101.2c-2,0-3.9-0.4-5.5-1.3
	c-1.6-0.9-2.9-2.1-3.9-3.6c-0.9-1.6-1.4-3.3-1.4-5.3c0-2,0.5-3.7,1.4-5.2c0.9-1.5,2.2-2.8,3.9-3.6c1.6-0.9,3.5-1.3,5.5-1.3
	c2.1,0,3.9,0.4,5.5,1.3c1.6,0.9,2.9,2.1,3.8,3.6c0.9,1.5,1.4,3.3,1.4,5.2c0,2-0.5,3.7-1.4,5.3c-0.9,1.5-2.2,2.8-3.8,3.6
	C705.7,100.7,703.9,101.2,701.8,101.2z M701.8,99c1.6,0,3-0.3,4.2-1c1.2-0.7,2.2-1.7,2.9-2.9c0.7-1.2,1.1-2.6,1.1-4.1
	c0-1.5-0.4-2.9-1.1-4.1c-0.7-1.2-1.7-2.1-2.9-2.8c-1.2-0.7-2.6-1.1-4.2-1.1c-1.6,0-3,0.4-4.2,1.1c-1.2,0.7-2.2,1.6-2.9,2.8
	c-0.7,1.2-1.1,2.6-1.1,4.1c0,1.5,0.4,2.9,1.1,4.1c0.7,1.2,1.7,2.2,2.9,2.9C698.8,98.6,700.2,99,701.8,99z M739.2,101V81h2.1
	l13.6,16.9h-1V81h2.5v20h-2.1l-13.6-16.9h1V101H739.2z M787.3,89.8h10.8v2.1h-10.8V89.8z M787.7,98.8h12v2.1h-14.6V81h14.1v2.1
	h-11.6V98.8z M826.5,101V81h2.1l13.6,16.9h-1V81h2.6v20h-2.1L828,84.1h1V101H826.5z M875.9,101V83.1h-7V81h16.7v2.1h-7V101H875.9z
	 M941.1,101V81h2.6v17.9h11.2v2.1H941.1z M980.1,101V81h2.6v20H980.1z M1011.4,101V81h8.9c2.3,0,4.1,0.4,5.3,1.3
	c1.3,0.9,1.9,2.2,1.9,3.8c0,1.6-0.6,2.9-1.7,3.8c-1.1,0.9-2.5,1.3-4.3,1.3l0.5-0.8c2.1,0,3.7,0.4,4.8,1.3c1.2,0.9,1.7,2.2,1.7,3.9
	c0,1.7-0.7,3-1.9,4c-1.3,0.9-3.3,1.4-5.9,1.4H1011.4z M1013.9,99h6.8c1.7,0,3-0.3,3.9-0.9c0.9-0.6,1.3-1.5,1.3-2.7
	c0-1.3-0.5-2.2-1.3-2.7c-0.9-0.6-2.2-0.9-3.9-0.9h-7.3v-2h6.6c1.6,0,2.8-0.3,3.6-0.9c0.9-0.6,1.3-1.5,1.3-2.6c0-1.1-0.4-2-1.3-2.6
	c-0.8-0.6-2-0.9-3.6-0.9h-6.2V99z M1055.2,101V81h7.8c1.8,0,3.2,0.3,4.5,0.8c1.2,0.5,2.2,1.3,2.9,2.4c0.7,1,1,2.3,1,3.7
	c0,1.4-0.3,2.6-1,3.7c-0.7,1-1.7,1.8-2.9,2.4c-1.2,0.5-2.7,0.8-4.5,0.8h-6.3l1.1-1.1v7.4H1055.2z M1068.9,101l-5.2-7.3h2.8l5.2,7.3
	H1068.9z M1057.8,93.8l-1-1.2h6.1c1.9,0,3.4-0.4,4.4-1.2c1-0.9,1.5-2,1.5-3.5c0-1.5-0.5-2.7-1.5-3.5s-2.5-1.2-4.4-1.2h-6.1l1-1.2
	V93.8z M1094.9,101l9.2-20h2.5l9.2,20h-2.6l-8.4-18.6h0.9l-8.4,18.6H1094.9z M1098.8,95.8l0.7-2.1h11.4l0.7,2.1H1098.8z M1141,101
	V81h7.8c1.7,0,3.2,0.3,4.5,0.8c1.2,0.5,2.2,1.3,2.9,2.4c0.7,1,1,2.3,1,3.7c0,1.4-0.3,2.6-1,3.7c-0.7,1-1.7,1.8-2.9,2.4
	c-1.2,0.5-2.7,0.8-4.5,0.8h-6.3l1.1-1.1v7.4H1141z M1154.7,101l-5.2-7.3h2.8l5.2,7.3H1154.7z M1143.6,93.8l-1-1.2h6.1
	c1.9,0,3.4-0.4,4.4-1.2c1-0.9,1.5-2,1.5-3.5c0-1.5-0.5-2.7-1.5-3.5c-1-0.8-2.5-1.2-4.4-1.2h-6.1l1-1.2V93.8z M1188.9,101v-7.5
	l0.5,1.7l-8.8-14.2h2.7l7.5,12.2h-1.3l7.6-12.2h2.6l-8.8,14.2l0.5-1.7v7.5H1188.9z"/>
</svg>
