<?xml version="1.0" encoding="utf-8"?>
<!-- Generator: Adobe Illustrator 24.3.0, SVG Export Plug-In . SVG Version: 6.00 Build 0)  -->
<svg version="1.1" id="Layer_1" xmlns="http://www.w3.org/2000/svg" xmlns:xlink="http://www.w3.org/1999/xlink" x="0px" y="0px"
	 viewBox="0 0 75.8 76.2" style="enable-background:new 0 0 75.8 76.2;" xml:space="preserve">
<style type="text/css">
	.st0{fill:#FF6663;}
</style>
<g id="Layer_2_1_">
	<g id="svg3070">
		<g id="layer1">
			<g id="g3019">
				<path class="st0" d="M40.7,34.4L40.7,34.4L40.7,34.4L40.7,34.4z"/>
				<path class="st0" d="M70.2,0H5.6C2.5,0,0,2.4,0,5.5v65.3c0,3.1,2.5,5.5,5.6,5.5h64.6c3.1,0,5.6-2.4,5.6-5.5V5.5
					C75.7,2.4,73.2,0,70.2,0z M23,63.8H11.5V29.4H23V63.8z M17.2,24.7L17.2,24.7c-3.9,0-6.4-2.6-6.4-6s2.6-5.9,6.5-5.9
					s6.3,2.6,6.4,5.9S21.2,24.7,17.2,24.7z M64.2,63.8H52.8V45.4c0-4.6-1.7-7.8-5.8-7.8c-2.6,0-5,1.7-5.9,4.2
					c-0.3,0.9-0.4,1.8-0.4,2.8v19.2H29.3c0,0,0.1-31.2,0-34.4h11.4v4.9c2.1-3.7,6.1-5.9,10.3-5.7c7.5,0,13.2,4.9,13.2,15.5V63.8z"/>
			</g>
		</g>
	</g>
</g>
</svg>
