<?xml version="1.0" encoding="utf-8"?>
<!-- Generator: Adobe Illustrator 24.3.0, SVG Export Plug-In . SVG Version: 6.00 Build 0)  -->
<svg version="1.1" id="Layer_1" xmlns="http://www.w3.org/2000/svg" xmlns:xlink="http://www.w3.org/1999/xlink" x="0px" y="0px"
	 viewBox="0 0 48 48" style="enable-background:new 0 0 48 48;" xml:space="preserve">
<style type="text/css">
	.st0{fill:#FF6663;}
	.st1{fill:#20A39E;}
</style>
<g>
	<g>
		<path class="st0" d="M34.5,22.3c0.1,1.8-0.5,3.6-1.5,5c-0.3,0.4-0.8,0.6-1.3,0.4c-0.9-0.3-3.2-1.4-4.2-2.3c-0.2-0.2-0.2-0.6,0-0.8
			c0.9-1,3.7-3.6,5.5-4.3C34.1,19.8,34.4,20.9,34.5,22.3z"/>
		<path class="st0" d="M15,20.3c1.9,0.7,4.6,3.3,5.5,4.3c0.2,0.2,0.2,0.6,0,0.8c-0.9,0.9-3.3,2-4.2,2.3c-0.5,0.2-1,0-1.3-0.4
			c-1-1.4-1.6-3.2-1.5-5C13.6,20.9,13.8,19.8,15,20.3z"/>
	</g>
</g>
<g>
	<path class="st1" d="M22.3,42.5L5.5,25.7c-0.4-0.4-1-0.7-1.7-0.7H0.6c-0.5,0-0.8,0.6-0.4,1L22,47.8c0.4,0.4,1,0.1,1-0.4v-3.2
		C23,43.5,22.8,42.9,22.3,42.5z"/>
	<path class="st1" d="M25.7,5.5l16.8,16.8c0.4,0.4,1,0.7,1.7,0.7h3.2c0.5,0,0.8-0.6,0.4-1L26,0.2c-0.4-0.4-1-0.1-1,0.4v3.2
		C25,4.5,25.2,5.1,25.7,5.5z"/>
	<path class="st1" d="M5.5,22.3L22.3,5.5c0.4-0.4,0.7-1,0.7-1.7V0.6c0-0.5-0.6-0.8-1-0.4L0.2,22c-0.4,0.4-0.1,1,0.4,1h3.2
		C4.5,23,5.1,22.8,5.5,22.3z"/>
	<path class="st1" d="M42.5,25.7L25.7,42.5c-0.4,0.4-0.7,1-0.7,1.7v3.2c0,0.5,0.6,0.8,1,0.4L47.8,26c0.4-0.4,0.1-1-0.4-1h-3.2
		C43.5,25,42.9,25.2,42.5,25.7z"/>
</g>
</svg>
