<?xml version="1.0" encoding="utf-8"?>
<!-- Generator: Adobe Illustrator 26.3.1, SVG Export Plug-In . SVG Version: 6.00 Build 0)  -->
<svg version="1.1" id="Layer_1" xmlns="http://www.w3.org/2000/svg" xmlns:xlink="http://www.w3.org/1999/xlink" x="0px" y="0px"
	 viewBox="0 0 16 16" style="enable-background:new 0 0 16 16;" xml:space="preserve">
<path d="M10,8H2v5c0,0.5-0.5,1-1,1s-1-0.4-1-1V8c0-1.1,0.9-2,2-2h8c0.6,0,1,0.4,1,1C11,7.6,10.6,8,10,8z M15.3,5.4l-4-3.2
	c-0.4-0.3-1.1-0.3-1.4,0.1C9.5,2.8,9.6,3.4,10,3.8L14.1,7L10,10.2c-0.4,0.3-0.5,1-0.1,1.4c0.4,0.4,1,0.5,1.4,0.1l4-3.2
	C16.2,7.8,16.2,6.2,15.3,5.4z"/>
</svg>
