<?xml version="1.0" encoding="UTF-8"?><svg xmlns="http://www.w3.org/2000/svg" viewBox="0 0 16 14"><defs></defs><g id="a"/><g id="b"><g id="c"><path class="d" d="M8,14c-.11,0-.21-.02-.31-.06-.31-.12-7.69-2.91-7.69-9.57C0,1.96,1.99,0,4.44,0c1.45,0,2.74,.69,3.56,1.75,.81-1.06,2.1-1.75,3.56-1.75,2.45,0,4.44,1.96,4.44,4.38,0,6.65-7.37,9.45-7.69,9.57-.1,.04-.21,.06-.31,.06ZM4.44,1.75c-1.47,0-2.67,1.18-2.67,2.62,0,4.74,4.92,7.22,6.22,7.8,1.3-.58,6.22-3.06,6.22-7.8,0-1.45-1.2-2.62-2.67-2.62s-2.67,1.18-2.67,2.62c0,.48-.4,.88-.89,.88s-.89-.39-.89-.88c0-1.45-1.2-2.62-2.67-2.62Z"/></g></g></svg>