<?xml version="1.0" encoding="utf-8"?>
<!-- Generator: Adobe Illustrator 26.3.1, SVG Export Plug-In . SVG Version: 6.00 Build 0)  -->
<svg version="1.1" id="Layer_1" xmlns="http://www.w3.org/2000/svg" xmlns:xlink="http://www.w3.org/1999/xlink" x="0px" y="0px"
	 viewBox="0 0 16 16" style="enable-background:new 0 0 16 16;" xml:space="preserve">
<path d="M11.4,2.8c-0.5-0.3-0.5-1-0.2-1.4c0.3-0.4,0.9-0.4,1.4-0.2c0.6,0.3,2,0.8,2.6,1.2C15.8,2.7,16,3.4,16,4
	c0,0.6-0.2,1.3-0.8,1.6c-0.6,0.4-2,0.9-2.6,1.2c-0.5,0.2-1.1,0.2-1.4-0.2c-0.3-0.4-0.3-1.1,0.2-1.4C12,4.9,14,4,14,4
	S12,3.1,11.4,2.8z M15.2,10.4c-0.6-0.4-2-0.9-2.6-1.2c-0.5-0.2-1.1-0.2-1.4,0.2c-0.3,0.4-0.3,1.1,0.2,1.4C12,11.1,14,12,14,12
	s-2,0.9-2.6,1.2c-0.5,0.3-0.5,1-0.2,1.4c0.3,0.4,0.9,0.4,1.4,0.2c0.6-0.3,2-0.8,2.6-1.2c0.6-0.4,0.8-1,0.8-1.6
	C16,11.4,15.8,10.7,15.2,10.4z M10,11H8c-0.5,0-1,0.4-1,1c0,0.5,0.4,1,1,1h2c0.5,0,1-0.4,1-1C11,11.4,10.5,11,10,11z M1,5h1
	c0.5,0,1-0.4,1-1c0-0.5-0.4-1-1-1H1C0.4,3,0,3.5,0,4C0,4.6,0.4,5,1,5z M11,4c0-0.5-0.4-1-1-1H6C4.9,3,4,3.9,4,5v6H1
	c-0.5,0-1,0.4-1,1c0,0.5,0.4,1,1,1h3c1.1,0,2-0.9,2-2V5h4C10.5,5,11,4.6,11,4z"/>
</svg>
