<?xml version="1.0" encoding="utf-8"?>
<!-- Generator: Adobe Illustrator 26.3.1, SVG Export Plug-In . SVG Version: 6.00 Build 0)  -->
<svg version="1.1" id="Layer_1" xmlns="http://www.w3.org/2000/svg" xmlns:xlink="http://www.w3.org/1999/xlink" x="0px" y="0px"
	 viewBox="0 0 16 16" style="enable-background:new 0 0 16 16;" xml:space="preserve">
<path d="M4.3,1.7C4.1,1.9,3.9,2,3.6,2H2v1.6c0,0.3-0.1,0.5-0.3,0.7C1.1,4.9,0,4.5,0,3.6V2c0-1.1,0.9-2,2-2h1.6
	C4.5,0,4.9,1.1,4.3,1.7L4.3,1.7z M3.6,14H2v-1.6c0-0.3-0.1-0.5-0.3-0.7C1.1,11.1,0,11.5,0,12.4V14c0,1.1,0.9,2,2,2h1.6
	c0.9,0,1.3-1.1,0.7-1.7C4.1,14.1,3.9,14,3.6,14z M14.3,11.7c-0.2,0.2-0.3,0.4-0.3,0.7V14h-1.6c-0.3,0-0.5,0.1-0.7,0.3
	c-0.6,0.6-0.2,1.7,0.7,1.7H14c1.1,0,2-0.9,2-2v-1.6C16,11.5,14.9,11.1,14.3,11.7z M14,0h-1.6c-0.9,0-1.3,1.1-0.7,1.7
	C11.9,1.9,12.1,2,12.4,2H14v1.6c0,0.3,0.1,0.5,0.3,0.7C14.9,4.9,16,4.5,16,3.6V2C16,0.9,15.1,0,14,0L14,0z"/>
</svg>
