<?xml version="1.0" encoding="utf-8"?>
<!-- Generator: Adobe Illustrator 26.3.1, SVG Export Plug-In . SVG Version: 6.00 Build 0)  -->
<svg version="1.1" id="Layer_1" xmlns="http://www.w3.org/2000/svg" xmlns:xlink="http://www.w3.org/1999/xlink" x="0px" y="0px"
	 viewBox="0 0 16 16" style="enable-background:new 0 0 16 16;" xml:space="preserve">
<path d="M11,2v12l-1.7-1.4l-1.3-1l-1.3,1L5,14V2H11z M11,0H5C3.9,0,3,0.9,3,2v12c0,1.2,1,2,2,2c0.4,0,0.9-0.1,1.2-0.4L8,14.1
	l1.8,1.4c0.4,0.3,0.8,0.4,1.2,0.4c1,0,2-0.8,2-2V2C13,0.9,12.1,0,11,0z"/>
</svg>
