<?xml version="1.0" encoding="utf-8"?>
<!-- Generator: Adobe Illustrator 26.3.1, SVG Export Plug-In . SVG Version: 6.00 Build 0)  -->
<svg version="1.1" id="Layer_1" xmlns="http://www.w3.org/2000/svg" xmlns:xlink="http://www.w3.org/1999/xlink" x="0px" y="0px"
	 viewBox="0 0 16 16" style="enable-background:new 0 0 16 16;" xml:space="preserve">
<path d="M14,2v8H7.2l-0.6,0.5L4,12.8V10H2V2H14L14,2z M14,0H2C0.9,0,0,0.9,0,2v8c0,1.1,0.9,2,2,2v3c0,0.6,0.5,1,1,1
	c0.2,0,0.4,0,0.5-0.2L8,12h6c1.1,0,2-0.9,2-2V2C16,0.9,15.1,0,14,0z"/>
</svg>
