<?xml version="1.0" encoding="utf-8"?>
<!-- Generator: Adobe Illustrator 26.2.1, SVG Export Plug-In . SVG Version: 6.00 Build 0)  -->
<svg version="1.1" id="Burger" xmlns="http://www.w3.org/2000/svg" xmlns:xlink="http://www.w3.org/1999/xlink" x="0px" y="0px"
	 viewBox="0 0 16 16" style="enable-background:new 0 0 16 16;" xml:space="preserve">
<g>
	<path d="M0.9,4h14.2C15.6,4,16,3.6,16,3s-0.4-1-0.9-1H0.9C0.4,2,0,2.4,0,3S0.4,4,0.9,4z"/>
	<path d="M15.1,7.1H0.9C0.4,7.1,0,7.5,0,8.1c0,0.6,0.4,1,0.9,1h14.2c0.5,0,0.9-0.4,0.9-1C16,7.6,15.6,7.1,15.1,7.1z"/>
	<path d="M15.1,12H0.9C0.4,12,0,12.4,0,13s0.4,1,0.9,1h14.2c0.5,0,0.9-0.4,0.9-1S15.6,12,15.1,12z"/>
</g>
</svg>
