<?xml version="1.0" encoding="utf-8"?>
<!-- Generator: Adobe Illustrator 26.2.1, SVG Export Plug-In . SVG Version: 6.00 Build 0)  -->
<svg version="1.1" id="Layer_1" xmlns="http://www.w3.org/2000/svg" xmlns:xlink="http://www.w3.org/1999/xlink" x="0px" y="0px"
	 viewBox="0 0 16 16" style="enable-background:new 0 0 16 16;" xml:space="preserve">
<path class="st0" d="M15.3,11.8l-1.5-1.5c-1.1-1.1-2.6-1.2-3.4-0.3l-1,1c-1-0.3-1.9-0.8-2.7-1.6C5.8,8.6,5.3,7.7,5,6.7l1-1
	C6.9,4.8,6.9,3.4,6,2.5L4.3,0.7C3.1-0.5,1.1-0.1,0.5,1.4C0.4,1.8,0.3,2.1,0.2,2.5c-0.5,2.6,0,5.5,1.5,7.9c0.1,0.2,0.3,0.4,0.4,0.6
	c0.1,0.2,0.2,0.3,0.3,0.4c0.3,0.4,0.6,0.7,0.9,1.1c0.3,0.4,0.7,0.7,1.1,1c0.1,0.1,0.3,0.2,0.4,0.3c0.2,0.2,0.4,0.3,0.6,0.4
	c2.4,1.5,5.3,2,7.9,1.5c0.4-0.1,0.8-0.2,1.2-0.4C16.1,14.9,16.5,12.9,15.3,11.8L15.3,11.8z"/>
</svg>
