<?xml version="1.0" encoding="utf-8"?>
<!-- Generator: Adobe Illustrator 26.3.1, SVG Export Plug-In . SVG Version: 6.00 Build 0)  -->
<svg version="1.1" id="Layer_1" xmlns="http://www.w3.org/2000/svg" xmlns:xlink="http://www.w3.org/1999/xlink" x="0px" y="0px"
	 viewBox="0 0 16 16" style="enable-background:new 0 0 16 16;" xml:space="preserve">
<path d="M14.6,1.5C13.8,1.2,12.9,1,12,1c-2,0-4,1.1-4,1.1S6,1,4,1C3.1,1,2.2,1.2,1.4,1.5C0,2,0,2.7,0,3.8V12c0,1.7,0.8,2.4,1.8,2.4
	c0.2,0,0.4,0,0.6-0.1c0.5-0.1,1.1-0.2,1.6-0.2c1.3,0,2.6,0.4,3.3,0.8C7.5,14.9,7.8,15,8,15s0.5,0,0.7-0.1c0.8-0.3,2-0.8,3.3-0.8
	c0.6,0,1.1,0.1,1.6,0.2c0.2,0.1,0.4,0.1,0.6,0.1c1,0,1.8-0.7,1.8-2.4V3.8C16,2.7,16,2,14.6,1.5z M2,12.3c0-0.1,0-0.2,0-0.4V3.7
	c0-0.1,0-0.2,0-0.3c0,0,0.1,0,0.1-0.1C2.7,3.1,3.4,3,4,3c1.2,0,2.5,0.6,3,0.8v8.8c-0.9-0.3-1.9-0.5-3-0.5C3.4,12.1,2.7,12.2,2,12.3z
	 M14,12c0,0.1,0,0.3,0,0.4c-0.7-0.2-1.3-0.2-2-0.2c-1.1,0-2.1,0.2-3,0.5V3.8C9.5,3.6,10.8,3,12,3c0.6,0,1.2,0.1,1.9,0.4
	c0.1,0,0.1,0,0.1,0.1c0,0.1,0,0.2,0,0.3V12z"/>
</svg>
