<?xml version="1.0" encoding="utf-8"?>
<!-- Generator: Adobe Illustrator 26.3.1, SVG Export Plug-In . SVG Version: 6.00 Build 0)  -->
<svg version="1.1" id="Layer_1" xmlns="http://www.w3.org/2000/svg" xmlns:xlink="http://www.w3.org/1999/xlink" x="0px" y="0px"
	 viewBox="0 0 16 16" style="enable-background:new 0 0 16 16;" xml:space="preserve">
<path d="M6,2c2.2,0,4,1.8,4,4c0,0.8-0.3,1.6-0.7,2.3L8.9,8.9L8.3,9.3C7.6,9.8,6.8,10,6,10c-2.2,0-4-1.8-4-4S3.8,2,6,2L6,2z M6,0
	C2.7,0,0,2.7,0,6s2.7,6,6,6c1.3,0,2.5-0.4,3.5-1.1l4.8,4.8c0.2,0.2,0.4,0.3,0.7,0.3c0.3,0,0.5-0.1,0.7-0.3c0.4-0.4,0.4-1,0-1.4
	l-4.8-4.8C11.6,8.5,12,7.3,12,6C12,2.7,9.3,0,6,0L6,0z"/>
</svg>
