<?xml version="1.0" encoding="utf-8"?>
<!-- Generator: Adobe Illustrator 24.3.0, SVG Export Plug-In . SVG Version: 6.00 Build 0)  -->
<svg version="1.1" id="Layer_1" xmlns="http://www.w3.org/2000/svg" xmlns:xlink="http://www.w3.org/1999/xlink" x="0px" y="0px"
	 viewBox="0 0 215 215" style="enable-background:new 0 0 215 215;" xml:space="preserve">
<style type="text/css">
	.st0{fill:#E74C3C;}
	.st1{fill:#7FD8D9;}
</style>
<g>
	<g>
		<path class="st0" d="M154.5,100.1c0.3,8-2.1,16-6.8,22.4c-1.3,1.7-3.6,2.5-5.7,1.7c-4.1-1.3-14.5-6.3-18.7-10.4
			c-1.1-1.1-1.1-2.7-0.1-3.7c4.1-4.6,16.4-16.1,24.8-19.3C153,88.9,154.2,93.7,154.5,100.1z"/>
		<path class="st0" d="M67.1,90.9c8.4,3.2,20.7,14.6,24.8,19.3c0.9,1.1,0.9,2.7-0.1,3.7c-4.2,4.1-14.6,9.1-18.7,10.4
			c-2.1,0.8-4.3,0-5.7-1.7c-4.7-6.4-7.1-14.4-6.8-22.4C60.8,93.7,62,88.9,67.1,90.9z"/>
	</g>
	<g>
		<path class="st1" d="M23,103.4L103.4,23c0.7-0.7,1.1-1.6,1.1-2.6V3.7c0-3.3-3.9-4.9-6.2-2.6L1.1,98.2c-2.3,2.3-0.7,6.2,2.6,6.2
			h16.7C21.4,104.4,22.3,104.1,23,103.4z"/>
		<path class="st1" d="M103.4,192L23,111.6c-0.7-0.7-1.6-1.1-2.6-1.1H3.7c-3.3,0-4.9,3.9-2.6,6.2l97.1,97.1c2.3,2.3,6.2,0.7,6.2-2.6
			v-16.7C104.4,193.6,104.1,192.7,103.4,192z"/>
		<path class="st1" d="M111.6,23l80.4,80.4c0.7,0.7,1.6,1.1,2.6,1.1h16.7c3.3,0,4.9-3.9,2.6-6.2L116.8,1.1c-2.3-2.3-6.2-0.7-6.2,2.6
			v16.7C110.5,21.4,110.9,22.3,111.6,23z"/>
		<path class="st1" d="M192,111.6L111.6,192c-0.7,0.7-1.1,1.6-1.1,2.6v16.7c0,3.3,3.9,4.9,6.2,2.6l97.1-97.1
			c2.3-2.3,0.7-6.2-2.6-6.2h-16.7C193.6,110.5,192.7,110.9,192,111.6z"/>
	</g>
</g>
</svg>
