<svg xmlns="http://www.w3.org/2000/svg" viewBox="0 0 215 215"><defs><style>.cls-1{fill:#e74c3c;}.cls-2,.cls-3{fill:none;stroke-miterlimit:10;stroke-width:4px;}.cls-2{stroke:#45d8d9;stroke-linecap:round;}.cls-3{stroke:#7fd8d9;}.cls-4{fill:#45d8d9;}</style></defs><g id="Layer_2" data-name="Layer 2"><g id="Layer_2-2" data-name="Layer 2"><path class="cls-1" d="M68.37,72a27.25,27.25,0,0,0,5.21,17,3.87,3.87,0,0,0,4.29,1.34c3.11-1,11-4.8,14.18-7.89a2,2,0,0,0,.08-2.82C89,76.15,79.75,67.4,73.37,65,69.45,63.54,68.59,67.11,68.37,72Z"/><path class="cls-1" d="M146.63,72a27.25,27.25,0,0,1-5.21,17,3.87,3.87,0,0,1-4.29,1.34c-3.11-1-11-4.8-14.18-7.89a2,2,0,0,1-.08-2.82C126,76.15,135.25,67.4,141.63,65,145.55,63.54,146.41,67.11,146.63,72Z"/><path class="cls-2" d="M119.23,43.09S112,46.51,112,54.51s0,29,2,32,5.5,1.5,8.5,4.5a50.54,50.54,0,0,1,8.31,11.6,5.37,5.37,0,0,1,.3,3.76,24.31,24.31,0,0,0,2.49,20.29c5.71,3.92,24,4.86,22.12,16.75l5,7.56a7.61,7.61,0,0,1,.57,7.44l-5.94,12.73a7.61,7.61,0,0,1-6.9,4.39H138.47a5.72,5.72,0,0,1-3.14,2.54c-1.89.4-8.75-.58-8.75-.58s-2.13,3.84-5.85,3.84H94.27c-3.72,0-5.85-3.84-5.85-3.84s-6.86,1-8.75.58a5.72,5.72,0,0,1-3.14-2.54H66.47a7.61,7.61,0,0,1-6.9-4.39l-5.94-12.73A7.61,7.61,0,0,1,54.2,151l5-7.56c-1.85-11.89,16.41-12.83,22.13-16.75a24.36,24.36,0,0,0,2.48-20.29,5.37,5.37,0,0,1,.3-3.76A50.54,50.54,0,0,1,92.46,91c3-3,6.5-1.5,8.5-4.5s2-24,2-32-7.19-11.42-7.19-11.42"/><path class="cls-3" d="M59.5,143.41s14.07,14.2,17.28,32.12"/><path class="cls-3" d="M155.5,143.41s-14.07,14.2-17.28,32.12"/><path class="cls-4" d="M115.35,150.87a12.8,12.8,0,0,1-15.7,0v23.42a12.07,12.07,0,0,0,5,1.09h5.74a12.07,12.07,0,0,0,5-1.09Z"/><path class="cls-4" d="M130.26,143.78l-9.42-38.26c-1.7-6.93-7.19-11.78-13.34-11.78s-11.64,4.85-13.34,11.78l-9.42,38.26a18.61,18.61,0,0,0,2.06,14.1l6.55,10.71a16,16,0,0,0,2.3,2.93V147.06a34.22,34.22,0,0,1-5.29-9.4L98,106.48c1.27-5.14,5.16-8.74,9.46-8.74s8.19,3.6,9.46,8.74l7.68,31.18a34.22,34.22,0,0,1-5.29,9.4v24.46a15.59,15.59,0,0,0,2.3-2.93l6.55-10.71A18.61,18.61,0,0,0,130.26,143.78Z"/><path class="cls-4" d="M83.28,105.5H2.06a2,2,0,1,0,0,4H83.28Z"/><path class="cls-4" d="M212.94,105.5H131.72v4h81.22a2,2,0,1,0,0-4Z"/><path class="cls-4" d="M104.45,15.89V3A3.13,3.13,0,0,0,99.13.89L.92,96.4a3,3,0,0,0,2.2,5.18H16.34a12.48,12.48,0,0,0,8.71-3.51l75.8-73.71A11.81,11.81,0,0,0,104.45,15.89Z"/><path class="cls-4" d="M43.46,134.84,25.05,116.93a12.48,12.48,0,0,0-8.71-3.51H3.12a3,3,0,0,0-2.2,5.18l36.62,35.61a3.17,3.17,0,0,0,4.79-.44L44.94,150A11.72,11.72,0,0,0,43.46,134.84Z"/><path class="cls-4" d="M214.08,96.4,115.87.89A3.13,3.13,0,0,0,110.55,3V15.89a11.81,11.81,0,0,0,3.6,8.47L190,98.07a12.45,12.45,0,0,0,8.7,3.51h13.22A3,3,0,0,0,214.08,96.4Z"/><path class="cls-4" d="M170.06,150l2.61,3.74a3.17,3.17,0,0,0,4.79.44l36.62-35.61a3,3,0,0,0-2.2-5.18H198.66a12.45,12.45,0,0,0-8.7,3.51l-18.42,17.91A11.72,11.72,0,0,0,170.06,150Z"/><path class="cls-4" d="M72.46,188.17l26.67,25.94a3.13,3.13,0,0,0,5.32-2.15V200.33A14.72,14.72,0,0,0,100,189.78h0a15.48,15.48,0,0,0-8.41-4.18L75.16,183A3,3,0,0,0,72.46,188.17Z"/><path class="cls-4" d="M115,189.78h0a14.72,14.72,0,0,0-4.49,10.55V212a3.13,3.13,0,0,0,5.32,2.15l26.67-25.94a3,3,0,0,0-2.7-5.14l-16.39,2.57A15.48,15.48,0,0,0,115,189.78Z"/></g></g></svg>