<svg xmlns="http://www.w3.org/2000/svg" viewBox="0 0 17.77 16.98"><defs><style>.cls-1{fill:#cbde68;}</style></defs><g id="Layer_2" data-name="Layer 2"><g id="Layer_1-2" data-name="Layer 1"><path class="cls-1" d="M0,1.72A2.23,2.23,0,0,1,.37.82a2.15,2.15,0,0,1,2-.81A1.92,1.92,0,0,1,4,.9a2,2,0,0,1-1.58,3A2.33,2.33,0,0,1,.82,3.58,1.89,1.89,0,0,1,0,2.35a.61.61,0,0,0,0-.11Z"/><path class="cls-1" d="M14,17v-.21c0-2,0-4.07,0-6.11a3.66,3.66,0,0,0-.2-1.18,1.68,1.68,0,0,0-1.86-1.2A2.09,2.09,0,0,0,10,9.83a3.65,3.65,0,0,0-.07.88q0,3,0,6.05V17H6.15V5.54H10V7.1c.22-.26.4-.5.61-.72A3.51,3.51,0,0,1,12.68,5.3a4.94,4.94,0,0,1,2.26.2,3.83,3.83,0,0,1,2.35,2.24,6.74,6.74,0,0,1,.48,2.66v6.46a.49.49,0,0,1,0,.11Z"/><path class="cls-1" d="M.23,5.53H4V17H.23Z"/></g></g></svg>