<?xml version="1.0" encoding="utf-8"?>
<!-- Generator: Adobe Illustrator 26.3.1, SVG Export Plug-In . SVG Version: 6.00 Build 0)  -->
<svg version="1.1" id="Layer_1" xmlns="http://www.w3.org/2000/svg" xmlns:xlink="http://www.w3.org/1999/xlink" x="0px" y="0px"
	 viewBox="0 0 1200 600" style="enable-background:new 0 0 1200 600;" xml:space="preserve">
<style type="text/css">
	.st0{fill:#2C2E30;}
	.st1{fill:#FFFFFF;stroke:#231F20;stroke-width:8;stroke-miterlimit:10;}
	.st2{fill:#231F20;}
	.st3{fill:#FFFFFF;}
	.st4{fill:#FCFCFC;}
</style>
<rect class="st0" width="1200" height="600"/>
<image style="overflow:visible;" width="1060" height="270" xlink:href="../../../../../Desktop/Screen Shot 2022-07-13 at 4.20.30 PM.png"  transform="matrix(0.5 0 0 0.5 1171.373 -351.6008)">
</image>
<g>
	<path class="st1" d="M-116.8-395.2l-9.5,15.8l-3.5-2.7c-11.3,12.6-25.8,29.9-24.5,44.7c2.2,24.1,25.8,29.2,37.4,29.2
		c11.6,0,35.2-5.2,37.4-29.2C-77.2-361.3-116.8-395.2-116.8-395.2z"/>
	<path class="st2" d="M-116.8-308v-44.4l-25-19.3c-7.4,9.8-13.2,24.8-12.4,34.5C-152-313.2-128.3-308-116.8-308z"/>
	<g>
		<path class="st3" d="M-130.4-329h-7.2c-1.7,0-3.1-1.4-3.1-3.1v-7.2c0-1.7,1.4-3.1,3.1-3.1h7.2c1.7,0,3.1,1.4,3.1,3.1v7.2
			C-127.3-330.4-128.7-329-130.4-329z"/>
		<path class="st2" d="M-95.9-329h-7.2c-1.7,0-3.1-1.4-3.1-3.1l0,0c0-1.7,1.4-3.1,3.1-3.1h7.2c1.7,0,3.1,1.4,3.1,3.1l0,0
			C-92.8-330.4-94.2-329-95.9-329z"/>
	</g>
</g>
<text transform="matrix(1 0 0 1 1171.373 -501.9572)" style="font-family:'NunitoSans-SemiBold'; font-size:112.0476px;">mintcushions</text>
<text transform="matrix(1 0 0 1 51.6783 -351.6008)" style="font-family:'NunitoSans-SemiBold'; font-size:112.0476px;">mintcushions</text>
<g>
	<g>
		<path class="st0" d="M600,134.4L580.5,167l-7.1-5.5c-23.3,26-53.1,61.5-50.4,92c4.5,49.6,53.2,60.2,77,60.2
			c23.8,0,72.5-10.6,77-60.2C681.5,204,600,134.4,600,134.4z"/>
		<path class="st4" d="M605.4,128.1l-7.4-6.3l-19.7,33.1l-5.8-4.5l-5.1,5.7c-28.9,32.3-55.3,66.5-52.4,98.3
			c4.8,53.4,55.8,67.7,85.2,67.7c29.4,0,80.3-14.3,85.2-67.7C690,201.1,608.8,131.1,605.4,128.1z M668.8,252.8
			c-4.6,51.2-62.2,52.7-68.8,52.7c0,0,0,0,0,0v-83.3l-40.8-31.4c5.3-6.7,10.6-12.9,15.2-18.1l8.4,6.5l19.1-32
			C626.8,170.2,671.8,219.3,668.8,252.8z"/>
		<g>
			<g>
				<path class="st0" d="M575.3,270.7h-21.5c-1.7,0-3.1-1.4-3.1-3.1v-21.5c0-1.7,1.4-3.1,3.1-3.1h21.5c1.7,0,3.1,1.4,3.1,3.1v21.5
					C578.4,269.3,577,270.7,575.3,270.7z"/>
			</g>
			<g>
				<g>
					<path class="st4" d="M646.2,270.7h-21.5c-1.7,0-3.1-1.4-3.1-3.1v-6.7c0-1.7,1.4-3.1,3.1-3.1h21.5c1.7,0,3.1,1.4,3.1,3.1v6.7
						C649.4,269.3,648,270.7,646.2,270.7z"/>
				</g>
			</g>
		</g>
	</g>
	<g>
		<path class="st4" d="M339.1,441.8v35.6h-11.9v-35.1c0-4.8-0.8-8.4-2.5-10.6c-1.7-2.2-4.4-3.3-8.2-3.3c-4.3,0-7.7,1.5-10.2,4.5
			c-2.5,3-3.8,7-3.8,12.2v32.4h-11.9v-35.1c0-4.8-0.9-8.4-2.6-10.6c-1.7-2.2-4.4-3.3-8.1-3.3c-4.4,0-7.8,1.5-10.3,4.5
			c-2.5,3-3.8,7-3.8,12.2v32.4h-11.9v-57.3h11.6v8.7c1.8-3.2,4.2-5.7,7.3-7.5c3.1-1.8,6.5-2.6,10.4-2.6c8.8,0,14.6,3.7,17.2,11
			c1.8-3.4,4.4-6.1,7.7-8.1c3.4-2,7.2-2.9,11.4-2.9C332.7,418.7,339.1,426.4,339.1,441.8z"/>
		<path class="st4" d="M354.5,394.6h13.6v12.3h-13.6V394.6z M355.3,477.4v-57.3h11.9v57.3H355.3z"/>
		<path class="st4" d="M435.1,441.8v35.6h-11.9v-35c0-4.8-1-8.4-2.9-10.7c-1.9-2.3-4.9-3.4-9-3.4c-4.8,0-8.6,1.5-11.5,4.5
			c-2.9,3-4.3,7-4.3,12v32.6h-11.9v-57.3h11.6v9.2c1.9-3.4,4.5-6.1,7.9-7.9c3.4-1.8,7.2-2.7,11.4-2.7
			C428.2,418.7,435.1,426.4,435.1,441.8z"/>
		<path class="st4" d="M483.7,468.7l-0.6,9c-2,0.3-4,0.5-6.1,0.5c-7.4,0-13-1.8-16.6-5.5c-3.6-3.6-5.5-8.9-5.5-15.8v-27.7h-11.1
			v-9.2h11.1v-17.2h11.9v17.2h15.7v9.2h-15.7v27.2c0,8.4,3.9,12.6,11.6,12.6C480.2,469.1,481.9,469,483.7,468.7z"/>
		<path class="st4" d="M502.7,474.6c-4.3-2.4-7.6-5.8-9.9-10.3c-2.3-4.4-3.5-9.6-3.5-15.5c0-5.9,1.2-11.2,3.6-15.7
			c2.4-4.5,5.7-8.1,10.1-10.6c4.3-2.5,9.4-3.8,15.2-3.8c4,0,7.8,0.7,11.6,2c3.7,1.3,6.7,3.1,9.1,5.4l-3.6,8.4
			c-5.2-4.2-10.5-6.3-16.1-6.3c-5.5,0-9.8,1.8-12.8,5.3c-3.1,3.6-4.6,8.6-4.6,15.1c0,6.4,1.5,11.4,4.6,14.8
			c3.1,3.5,7.4,5.2,12.9,5.2c5.6,0,10.9-2.1,16.1-6.3l3.6,8.6c-2.5,2.3-5.6,4-9.4,5.3c-3.8,1.3-7.7,1.9-11.7,1.9
			C512,478.2,507,477,502.7,474.6z"/>
		<path class="st4" d="M599.6,420.1v57.3h-11.5v-9.3c-1.8,3.3-4.3,5.8-7.5,7.5c-3.2,1.7-6.7,2.6-10.6,2.6c-13.9,0-20.9-7.7-20.9-23
			v-35.1H561v35c0,4.6,0.9,8,2.8,10.2c1.9,2.2,4.8,3.3,8.7,3.3c4.6,0,8.3-1.5,11.1-4.5c2.8-3,4.2-6.9,4.2-11.9v-32.2H599.6z"/>
		<path class="st4" d="M612.5,471l3.6-8.6c5.9,4.5,12.7,6.8,20.5,6.8c3.8,0,6.8-0.6,8.8-1.9c2-1.3,3.1-3.1,3.1-5.5
			c0-2-0.7-3.6-2.1-4.8c-1.4-1.2-3.7-2.1-7.1-2.9l-9.5-2.1c-5.1-1.2-8.9-3.1-11.5-5.7c-2.6-2.7-3.9-6-3.9-10.1
			c0-5.2,2.1-9.3,6.3-12.6c4.2-3.2,9.7-4.8,16.5-4.8c4.1,0,7.9,0.6,11.6,1.9c3.7,1.3,6.8,3.1,9.5,5.5l-3.6,8.3
			c-5.6-4.5-11.5-6.7-17.5-6.7c-3.6,0-6.4,0.7-8.5,2.1c-2.1,1.4-3.1,3.3-3.1,5.7c0,2,0.6,3.5,1.9,4.8c1.3,1.2,3.3,2.1,6.2,2.8
			l9.7,2.2c5.6,1.3,9.6,3.2,12.2,5.8c2.6,2.6,3.9,6,3.9,10.3c0,5.2-2.1,9.3-6.3,12.3c-4.2,3-9.8,4.5-17,4.5
			C626.4,478.2,618.4,475.8,612.5,471z"/>
		<path class="st4" d="M724.1,441.8v35.6h-11.9v-35c0-4.8-1-8.4-2.9-10.7c-1.9-2.3-4.9-3.4-9-3.4c-4.8,0-8.6,1.5-11.5,4.5
			c-2.9,3-4.3,7-4.3,12v32.6h-11.9v-82.7h11.9v34.1c2-3.3,4.6-5.8,7.9-7.5c3.3-1.7,7-2.6,11.1-2.6
			C717.2,418.7,724.1,426.4,724.1,441.8z"/>
		<path class="st4" d="M739.5,394.6h13.6v12.3h-13.6V394.6z M740.3,477.4v-57.3h11.9v57.3H740.3z"/>
		<path class="st4" d="M778.7,474.6c-4.3-2.4-7.5-5.9-9.9-10.4c-2.3-4.5-3.5-9.7-3.5-15.7c0-6,1.2-11.3,3.5-15.8
			c2.3-4.5,5.6-8,9.9-10.4c4.3-2.4,9.2-3.6,14.8-3.6c5.6,0,10.6,1.2,14.8,3.6c4.3,2.4,7.5,5.9,9.9,10.4c2.3,4.5,3.5,9.8,3.5,15.8
			c0,5.9-1.2,11.2-3.5,15.7c-2.3,4.5-5.6,8-9.9,10.4c-4.3,2.4-9.2,3.6-14.8,3.6C787.9,478.2,783,477,778.7,474.6z M805.6,463.7
			c2.8-3.4,4.2-8.5,4.2-15.1c0-6.6-1.4-11.6-4.2-15.1c-2.8-3.5-6.8-5.2-12-5.2c-5.2,0-9.2,1.7-12,5.2c-2.8,3.5-4.2,8.5-4.2,15.1
			c0,6.7,1.4,11.7,4.2,15.1c2.8,3.4,6.8,5.2,12,5.2C798.8,468.8,802.8,467.1,805.6,463.7z"/>
		<path class="st4" d="M886.2,441.8v35.6h-11.9v-35c0-4.8-1-8.4-2.9-10.7c-1.9-2.3-4.9-3.4-9-3.4c-4.8,0-8.6,1.5-11.5,4.5
			c-2.9,3-4.3,7-4.3,12v32.6h-11.9v-57.3h11.6v9.2c1.9-3.4,4.5-6.1,7.9-7.9c3.4-1.8,7.2-2.7,11.4-2.7
			C879.4,418.7,886.2,426.4,886.2,441.8z"/>
		<path class="st4" d="M898.8,471l3.6-8.6c5.9,4.5,12.7,6.8,20.5,6.8c3.8,0,6.8-0.6,8.8-1.9c2-1.3,3.1-3.1,3.1-5.5
			c0-2-0.7-3.6-2.1-4.8c-1.4-1.2-3.7-2.1-7.1-2.9l-9.5-2.1c-5.1-1.2-8.9-3.1-11.5-5.7c-2.6-2.7-3.9-6-3.9-10.1
			c0-5.2,2.1-9.3,6.3-12.6c4.2-3.2,9.7-4.8,16.5-4.8c4.1,0,7.9,0.6,11.6,1.9c3.7,1.3,6.8,3.1,9.5,5.5l-3.6,8.3
			c-5.6-4.5-11.5-6.7-17.5-6.7c-3.6,0-6.4,0.7-8.5,2.1c-2.1,1.4-3.1,3.3-3.1,5.7c0,2,0.6,3.5,1.9,4.8c1.3,1.2,3.3,2.1,6.2,2.8
			l9.7,2.2c5.6,1.3,9.6,3.2,12.2,5.8c2.6,2.6,3.9,6,3.9,10.3c0,5.2-2.1,9.3-6.3,12.3c-4.2,3-9.8,4.5-17,4.5
			C912.7,478.2,904.7,475.8,898.8,471z"/>
	</g>
</g>
<g>
	<path class="st0" d="M363.3-673.1l-19.5,32.6l-7.1-5.5c-23.3,26-53.1,61.5-50.4,92c4.5,49.6,53.2,60.2,77,60.2
		c23.8,0,72.5-10.6,77-60.2C444.8-603.5,363.3-673.1,363.3-673.1z"/>
	<path class="st3" d="M368.7-679.4l-7.4-6.3l-19.7,33.1l-5.8-4.5l-5.1,5.7c-28.9,32.3-55.3,66.5-52.4,98.3
		c4.8,53.4,55.8,67.7,85.2,67.7c29.4,0,80.3-14.3,85.2-67.7C453.3-606.4,372.1-676.4,368.7-679.4z M432.1-554.7
		c-4.6,51.2-62.2,52.7-68.8,52.7c0,0,0,0,0,0v-83.3l-40.8-31.4c5.3-6.7,10.6-12.9,15.2-18.1l8.4,6.5l19.1-32
		C390.1-637.4,435.1-588.2,432.1-554.7z"/>
	<g>
		<g>
			<path class="st0" d="M338.6-536.8h-21.5c-1.7,0-3.1-1.4-3.1-3.1v-21.5c0-1.7,1.4-3.1,3.1-3.1h21.5c1.7,0,3.1,1.4,3.1,3.1v21.5
				C341.7-538.2,340.3-536.8,338.6-536.8z"/>
		</g>
		<g>
			<path class="st3" d="M409.5-536.8h-21.5c-1.7,0-3.1-1.4-3.1-3.1v-6.7c0-1.7,1.4-3.1,3.1-3.1h21.5c1.7,0,3.1,1.4,3.1,3.1v6.7
				C412.7-538.2,411.3-536.8,409.5-536.8z"/>
		</g>
	</g>
</g>
</svg>
