<svg width="549" height="39" viewBox="0 0 549 39" fill="none" xmlns="http://www.w3.org/2000/svg">
<path d="M8.384 31.256C6.80533 31.256 5.26933 31.0107 3.776 30.52C2.304 30.0293 1.09867 29.368 0.16 28.536L1.632 26.008C2.37867 26.712 3.34933 27.288 4.544 27.736C5.73867 28.184 7.01867 28.408 8.384 28.408C10.048 28.408 11.3387 28.056 12.256 27.352C13.1947 26.6267 13.664 25.656 13.664 24.44C13.664 23.2667 13.216 22.328 12.32 21.624C11.4453 20.8987 10.048 20.536 8.128 20.536H6.336V18.296L12.992 10.104L13.44 11.384H1.184V8.6H15.968V10.776L9.344 18.936L7.68 17.944H8.736C11.4453 17.944 13.472 18.552 14.816 19.768C16.1813 20.984 16.864 22.5307 16.864 24.408C16.864 25.6667 16.5547 26.8187 15.936 27.864C15.3173 28.9093 14.3787 29.7413 13.12 30.36C11.8827 30.9573 10.304 31.256 8.384 31.256ZM29.0965 31V12.824H37.0005C39.0485 12.824 40.8192 13.1973 42.3125 13.944C43.8272 14.6907 44.9898 15.7467 45.8005 17.112C46.6325 18.4773 47.0485 20.0773 47.0485 21.912C47.0485 23.7467 46.6325 25.3467 45.8005 26.712C44.9898 28.0773 43.8272 29.1333 42.3125 29.88C40.8192 30.6267 39.0485 31 37.0005 31H29.0965ZM32.2005 28.408H36.8725C38.3658 28.408 39.6352 28.152 40.6805 27.64C41.7258 27.1067 42.5258 26.3493 43.0805 25.368C43.6352 24.3867 43.9125 23.2347 43.9125 21.912C43.9125 20.568 43.6352 19.416 43.0805 18.456C42.5258 17.4747 41.7258 16.7173 40.6805 16.184C39.6352 15.6507 38.3658 15.384 36.8725 15.384H32.2005V28.408ZM72.383 31L80.703 12.824H83.775L92.127 31H88.991L81.727 14.456H82.783L75.423 31H72.383ZM76.191 26.68L77.023 24.216H87.007L87.839 26.68H76.191ZM102.887 31V12.824H110.311C111.911 12.824 113.287 13.08 114.439 13.592C115.591 14.0827 116.487 14.808 117.127 15.768C117.767 16.7067 118.087 17.8587 118.087 19.224C118.087 20.5467 117.767 21.688 117.127 22.648C116.487 23.608 115.591 24.344 114.439 24.856C113.287 25.3467 111.911 25.592 110.311 25.592H104.615L105.991 24.184V31H102.887ZM115.047 31L110.311 24.408H113.671L118.407 31H115.047ZM105.991 24.536L104.807 23.064H110.119C111.697 23.064 112.892 22.7333 113.703 22.072C114.535 21.4107 114.951 20.4613 114.951 19.224C114.951 17.9867 114.535 17.0373 113.703 16.376C112.892 15.7147 111.697 15.384 110.119 15.384H104.807L105.991 13.912V24.536ZM133.642 31V15.384H127.434V12.824H142.954V15.384H136.746V31H133.642ZM153.872 31V12.824H156.976V31H153.872ZM183.537 25.816C183.537 26.9253 183.238 27.8853 182.641 28.696C182.065 29.5067 181.222 30.136 180.113 30.584C179.025 31.032 177.702 31.256 176.145 31.256C174.737 31.256 173.361 31.064 172.017 30.68C170.694 30.2747 169.659 29.7413 168.913 29.08L170.129 26.648C170.854 27.224 171.761 27.704 172.849 28.088C173.937 28.4507 175.078 28.632 176.273 28.632C177.809 28.632 178.886 28.3867 179.505 27.896C180.123 27.384 180.433 26.7867 180.433 26.104C180.433 25.5067 180.23 25.0373 179.825 24.696C179.441 24.3333 178.918 24.056 178.257 23.864C177.595 23.6507 176.87 23.4587 176.081 23.288C175.313 23.1173 174.534 22.9253 173.745 22.712C172.977 22.4987 172.262 22.2107 171.601 21.848C170.961 21.4853 170.438 20.9947 170.033 20.376C169.627 19.736 169.425 18.936 169.425 17.976C169.425 16.888 169.723 15.9387 170.321 15.128C170.918 14.3173 171.761 13.688 172.849 13.24C173.937 12.792 175.238 12.568 176.753 12.568C177.862 12.568 178.961 12.696 180.049 12.952C181.137 13.1867 182.075 13.5813 182.865 14.136L181.745 16.632C180.977 16.0987 180.145 15.7253 179.249 15.512C178.374 15.2987 177.51 15.192 176.657 15.192C175.206 15.192 174.15 15.448 173.489 15.96C172.849 16.4507 172.529 17.0587 172.529 17.784C172.529 18.3813 172.731 18.8613 173.137 19.224C173.542 19.5653 174.065 19.8427 174.705 20.056C175.366 20.248 176.091 20.4293 176.881 20.6C177.67 20.7707 178.449 20.9627 179.217 21.176C179.985 21.3893 180.699 21.6773 181.361 22.04C182.022 22.4027 182.545 22.8933 182.929 23.512C183.334 24.1093 183.537 24.8773 183.537 25.816ZM198.432 31V15.384H192.224V12.824H207.744V15.384H201.536V31H198.432ZM235.191 37.208V7.256H238.039V37.208H235.191ZM268.452 31V12.824H275.876C277.476 12.824 278.852 13.08 280.004 13.592C281.156 14.0827 282.052 14.808 282.692 15.768C283.332 16.7067 283.652 17.8587 283.652 19.224C283.652 20.568 283.332 21.72 282.692 22.68C282.052 23.64 281.156 24.376 280.004 24.888C278.852 25.4 277.476 25.656 275.876 25.656H270.18L271.556 24.184V31H268.452ZM271.556 24.536L270.372 23.064H275.684C277.262 23.064 278.457 22.7333 279.268 22.072C280.1 21.4107 280.516 20.4613 280.516 19.224C280.516 17.9867 280.1 17.0373 279.268 16.376C278.457 15.7147 277.262 15.384 275.684 15.384H270.372L271.556 13.912V24.536ZM296.069 31V12.824H303.493C305.093 12.824 306.469 13.08 307.621 13.592C308.773 14.0827 309.669 14.808 310.309 15.768C310.949 16.7067 311.269 17.8587 311.269 19.224C311.269 20.5467 310.949 21.688 310.309 22.648C309.669 23.608 308.773 24.344 307.621 24.856C306.469 25.3467 305.093 25.592 303.493 25.592H297.797L299.173 24.184V31H296.069ZM308.229 31L303.493 24.408H306.853L311.589 31H308.229ZM299.173 24.536L297.989 23.064H303.301C304.88 23.064 306.074 22.7333 306.885 22.072C307.717 21.4107 308.133 20.4613 308.133 19.224C308.133 17.9867 307.717 17.0373 306.885 16.376C306.074 15.7147 304.88 15.384 303.301 15.384H297.989L299.173 13.912V24.536ZM332.097 31.256C330.22 31.256 328.535 30.8507 327.041 30.04C325.548 29.2293 324.364 28.12 323.489 26.712C322.636 25.2827 322.209 23.672 322.209 21.88C322.209 20.1093 322.636 18.52 323.489 17.112C324.364 15.704 325.548 14.5947 327.041 13.784C328.535 12.9733 330.22 12.568 332.097 12.568C333.996 12.568 335.681 12.9733 337.153 13.784C338.647 14.5947 339.82 15.704 340.673 17.112C341.548 18.52 341.985 20.1093 341.985 21.88C341.985 23.672 341.548 25.2827 340.673 26.712C339.82 28.12 338.647 29.2293 337.153 30.04C335.681 30.8507 333.996 31.256 332.097 31.256ZM332.097 28.568C333.399 28.568 334.551 28.28 335.553 27.704C336.577 27.128 337.377 26.3387 337.953 25.336C338.551 24.312 338.849 23.1707 338.849 21.912C338.849 20.6107 338.551 19.4693 337.953 18.488C337.377 17.4853 336.577 16.696 335.553 16.12C334.551 15.544 333.399 15.256 332.097 15.256C330.817 15.256 329.665 15.544 328.641 16.12C327.617 16.6747 326.807 17.4533 326.209 18.456C325.633 19.4587 325.345 20.6107 325.345 21.912C325.345 23.1707 325.633 24.312 326.209 25.336C326.807 26.3387 327.617 27.128 328.641 27.704C329.665 28.28 330.817 28.568 332.097 28.568ZM369.507 28.92C368.91 29.4107 368.238 29.8373 367.491 30.2C366.744 30.5413 365.944 30.808 365.091 31C364.238 31.1707 363.374 31.256 362.499 31.256C360.579 31.256 358.862 30.8507 357.347 30.04C355.832 29.2293 354.638 28.12 353.763 26.712C352.91 25.2827 352.483 23.6827 352.483 21.912C352.483 20.0987 352.91 18.4987 353.763 17.112C354.638 15.704 355.811 14.5947 357.283 13.784C358.776 12.9733 360.472 12.568 362.371 12.568C363.95 12.568 365.358 12.8027 366.595 13.272C367.832 13.7413 368.867 14.456 369.699 15.416L367.715 17.432C367.011 16.6853 366.211 16.1413 365.315 15.8C364.44 15.4373 363.48 15.256 362.435 15.256C361.134 15.256 359.96 15.544 358.915 16.12C357.891 16.6747 357.08 17.4533 356.483 18.456C355.907 19.4587 355.619 20.6107 355.619 21.912C355.619 23.1707 355.918 24.312 356.515 25.336C357.112 26.3387 357.934 27.128 358.979 27.704C360.024 28.28 361.208 28.568 362.531 28.568C363.555 28.568 364.494 28.4187 365.347 28.12C366.2 27.8 366.99 27.3093 367.715 26.648L369.507 28.92ZM366.499 28.952V21.816H369.507V28.92L366.499 28.952ZM382.797 31V12.824H390.221C391.821 12.824 393.197 13.08 394.349 13.592C395.501 14.0827 396.397 14.808 397.037 15.768C397.677 16.7067 397.997 17.8587 397.997 19.224C397.997 20.5467 397.677 21.688 397.037 22.648C396.397 23.608 395.501 24.344 394.349 24.856C393.197 25.3467 391.821 25.592 390.221 25.592H384.525L385.901 24.184V31H382.797ZM394.957 31L390.221 24.408H393.581L398.317 31H394.957ZM385.901 24.536L384.717 23.064H390.029C391.607 23.064 392.802 22.7333 393.613 22.072C394.445 21.4107 394.861 20.4613 394.861 19.224C394.861 17.9867 394.445 17.0373 393.613 16.376C392.802 15.7147 391.607 15.384 390.029 15.384H384.717L385.901 13.912V24.536ZM407.497 31L415.817 12.824H418.889L427.241 31H424.105L416.841 14.456H417.897L410.537 31H407.497ZM411.305 26.68L412.137 24.216H422.121L422.953 26.68H411.305ZM438 31V12.824H440.656L448.624 26.072H447.408L455.248 12.824H457.936L457.968 31H454.992L454.96 17.592H455.44L448.688 28.824H447.248L440.304 17.592H440.976V31H438ZM471.868 31V12.824H474.524L482.492 26.072H481.276L489.116 12.824H491.804L491.836 31H488.86L488.828 17.592H489.308L482.556 28.824H481.116L474.172 17.592H474.844V31H471.868ZM508.327 20.504H517.895V23.032H508.327V20.504ZM508.839 28.408H519.367V31H505.735V12.824H519.015V15.384H508.839V28.408ZM531.665 31V12.824H539.089C540.689 12.824 542.065 13.08 543.217 13.592C544.369 14.0827 545.265 14.808 545.905 15.768C546.545 16.7067 546.865 17.8587 546.865 19.224C546.865 20.5467 546.545 21.688 545.905 22.648C545.265 23.608 544.369 24.344 543.217 24.856C542.065 25.3467 540.689 25.592 539.089 25.592H533.393L534.769 24.184V31H531.665ZM543.825 31L539.089 24.408H542.449L547.185 31H543.825ZM534.769 24.536L533.585 23.064H538.897C540.476 23.064 541.671 22.7333 542.481 22.072C543.313 21.4107 543.729 20.4613 543.729 19.224C543.729 17.9867 543.313 17.0373 542.481 16.376C541.671 15.7147 540.476 15.384 538.897 15.384H533.585L534.769 13.912V24.536Z" fill="#61FBFF"/>
</svg>
