<?xml version="1.0" encoding="utf-8"?>
<!-- Generator: Adobe Illustrator 26.2.1, SVG Export Plug-In . SVG Version: 6.00 Build 0)  -->
<svg version="1.1" id="Layer_1" xmlns="http://www.w3.org/2000/svg" xmlns:xlink="http://www.w3.org/1999/xlink" x="0px" y="0px"
	 viewBox="0 0 1200 387" enable-background="new 0 0 1200 387" xml:space="preserve">
<path fill="#FF6561" d="M286.3,176.6c0.8,17.7-4.8,36.3-15.3,50c-3.2,4-8.1,5.6-12.9,4c-8.9-3.2-32.2-13.7-41.9-23.4
	c-1.6-1.6-1.6-5.6,0-8.1c8.9-9.7,37.1-36.3,55.6-43.5C282.3,151.6,285.5,162.9,286.3,176.6z"/>
<path fill="#FF6561" d="M116,156.4c19.4,7.3,46,33.1,55.6,43.5c1.6,1.6,1.6,5.6,0,8.1c-8.9,8.9-33.1,20.2-41.9,23.4
	c-4.8,1.6-9.7,0-12.9-4c-9.7-13.7-16.1-32.3-15.3-50C101.5,162.9,103.9,151.6,116,156.4L116,156.4z"/>
<path fill="#3E9A9E" d="M179.8,342.7L44.3,207.2c-3.2-3.2-8.1-5.6-13.7-5.6H4.8c-4,0-6.5,4.8-3.2,8.1l175.8,175.8
	c3.2,3.2,8.1,0.8,8.1-3.2v-25.8C185.4,350.8,183.8,346,179.8,342.7z"/>
<path fill="#3E9A9E" d="M207.2,44.3l135.5,135.5c3.2,3.2,8.1,5.6,13.7,5.6h25.8c4,0,6.4-4.8,3.2-8.1L209.6,1.5
	c-3.2-3.2-8.1-0.8-8.1,3.2v25.8C201.6,36.2,203.2,41,207.2,44.3z"/>
<path fill="#3E9A9E" d="M44.3,179.8L179.8,44.3c3.2-3.2,5.6-8.1,5.6-13.7V4.8c0-4-4.8-6.4-8.1-3.2L1.5,177.4
	c-3.2,3.2-0.8,8.1,3.2,8.1h25.8C36.2,185.4,41,183.8,44.3,179.8z"/>
<path fill="#3E9A9E" d="M342.7,207.2L207.2,342.7c-3.2,3.2-5.6,8.1-5.6,13.7v25.8c0,4,4.8,6.4,8.1,3.2l175.8-175.8
	c3.2-3.2,0.8-8.1-3.2-8.1h-25.8C350.8,201.6,346,203.2,342.7,207.2L342.7,207.2z"/>
<path fill="#FF6561" d="M508.3,176l44.4-97.1h10.1l44.4,97.1h-10.8l-40.8-91.1h4.2L519,176H508.3z M525.8,150.1l3.1-8.3h56.5
	l3.1,8.3H525.8z M630.2,176V78.9h8.5l44.4,75.7h-4.4l44-75.7h8.5V176h-9.8V94.3h2.4L683,163.7h-4.9l-40.8-69.4h2.6V176H630.2z
	 M754.1,176l44.4-97.1h10.1L853,176h-10.8l-40.8-91.1h4.2L764.8,176H754.1z M771.6,150.1l3.1-8.3h56.5l3.1,8.3H771.6z M876,176V78.9
	h8.5l67,84.3H947V78.9h10.1V176h-8.5l-66.9-84.3h4.4V176H876z M995.8,176V78.9h39.5c10.4,0,19.4,2.1,27.2,6.2
	c7.9,4.1,14,9.8,18.3,17.1c4.3,7.3,6.5,15.7,6.5,25.2s-2.2,17.9-6.5,25.2c-4.4,7.3-10.5,13-18.3,17.2c-7.8,4.1-16.8,6.1-27.2,6.1
	h-39.5V176z M1006,167.1h28.7c8.6,0,16.1-1.7,22.3-5c6.4-3.4,11.3-8.1,14.8-14c3.5-6,5.3-12.9,5.3-20.7c0-7.9-1.8-14.8-5.3-20.7
	c-3.5-5.9-8.5-10.5-14.8-13.9s-13.7-5.1-22.3-5.1H1006V167.1z M1100.4,176l44.4-97.1h10.1l44.4,97.1h-10.8l-40.8-91.1h4.2
	l-40.8,91.1H1100.4z M1117.9,150.1l3.1-8.3h56.5l3.1,8.3H1117.9z M550.6,345.8c-7.2,0-14.1-1.2-20.8-3.5c-6.6-2.4-11.7-5.5-15.3-9.2
	l4-7.9c3.4,3.3,8,6.1,13.7,8.5c5.8,2.2,11.9,3.3,18.3,3.3c6.1,0,11.1-0.7,14.8-2.2c3.9-1.6,6.7-3.7,8.5-6.2c1.8-2.6,2.8-5.5,2.8-8.6
	c0-3.8-1.1-6.8-3.3-9.2c-2.1-2.3-4.9-4.1-8.5-5.4c-3.5-1.4-7.4-2.6-11.7-3.6s-8.5-2.1-12.8-3.2c-4.3-1.2-8.2-2.8-11.8-4.7
	c-3.5-1.9-6.4-4.5-8.6-7.6c-2.1-3.2-3.2-7.4-3.2-12.6c0-4.8,1.2-9.2,3.7-13.2c2.6-4.1,6.5-7.3,11.8-9.7c5.3-2.5,12-3.7,20.3-3.7
	c5.5,0,10.9,0.8,16.2,2.4c5.4,1.5,10,3.6,13.9,6.2l-3.5,8.2c-4.2-2.8-8.6-4.8-13.3-6.1c-4.6-1.3-9.1-1.9-13.5-1.9
	c-5.8,0-10.6,0.8-14.4,2.4c-3.8,1.6-6.6,3.7-8.5,6.4c-1.8,2.6-2.6,5.5-2.6,8.9c0,3.8,1.1,6.8,3.2,9.2c2.2,2.3,5.1,4.1,8.6,5.4
	c3.6,1.3,7.5,2.5,11.8,3.5s8.5,2.1,12.6,3.3c4.3,1.2,8.1,2.8,11.7,4.7c3.6,1.8,6.5,4.3,8.6,7.5c2.2,3.1,3.3,7.3,3.3,12.3
	c0,4.7-1.3,9.1-3.9,13.2c-2.6,4-6.6,7.2-11.9,9.7C565.7,344.6,558.9,345.8,550.6,345.8z M600.6,345l44.4-97.1h10.1l44.4,97.1h-10.8
	l-40.8-91.1h4.2L611.2,345H600.6z M618,319.1l3.1-8.3h56.5l3.1,8.3H618z M731.6,291.3h51.3v8.7h-51.3V291.3z M732.7,336.1h58.4v8.9
	h-68.7v-97.1H789v8.9h-56.3V336.1z M822.2,345v-97.1h8.5l67,84.3h-4.4v-84.3h10.1V345h-8.5L828,260.7h4.4V345H822.2z M932.4,345
	v-7.1l67.4-85l1.1,3.9h-67.6v-8.9h77v7.1L943,340l-1.2-3.9h70.2v8.9H932.4z"/>
<path fill="#3E9A9E" d="M515.4,35.2c-1.4,0-2.8-0.2-4.1-0.7c-1.3-0.5-2.3-1.1-3-1.9l1-1.6c0.6,0.7,1.5,1.2,2.6,1.6
	c1.1,0.4,2.3,0.6,3.6,0.6c1.6,0,2.9-0.4,3.7-1.1c0.9-0.7,1.3-1.7,1.3-2.9s-0.4-2.2-1.3-2.9c-0.8-0.7-2.2-1.1-4-1.1h-1.4v-1.5
	l6.1-7.6l0.3,0.8h-11v-1.8h12.7v1.4l-6.1,7.6l-1-0.6h0.8c2.4,0,4.1,0.5,5.3,1.6s1.8,2.4,1.8,4.1c0,1.1-0.3,2.1-0.8,3
	s-1.3,1.6-2.4,2.1C518.3,34.9,517,35.2,515.4,35.2z M543.8,35V19.1h6.7c1.8,0,3.4,0.3,4.6,1c1.3,0.7,2.3,1.6,3,2.8
	c0.7,1.2,1.1,2.6,1.1,4.1c0,1.6-0.4,3-1.1,4.2c-0.7,1.2-1.7,2.1-3,2.8s-2.8,1-4.6,1H543.8z M545.8,33.3h4.6c1.4,0,2.6-0.3,3.7-0.8
	c1-0.5,1.8-1.3,2.3-2.2c0.5-0.9,0.8-2,0.8-3.3s-0.3-2.4-0.8-3.3s-1.3-1.7-2.3-2.2s-2.2-0.8-3.7-0.8h-4.6V33.3z M601.8,35l7.4-15.9h2
	l7.4,15.9h-2l-6.7-14.8h0.7L603.8,35H601.8z M604.9,30.9l0.6-1.6h9.1l0.6,1.6H604.9z M638.4,35V19.1h6.2c1.4,0,2.6,0.2,3.5,0.6
	c1,0.4,1.8,1.1,2.3,1.9s0.8,1.8,0.8,3c0,1.1-0.3,2.1-0.8,2.9s-1.3,1.5-2.3,1.9s-2.2,0.6-3.5,0.6h-5l0.9-0.9V35H638.4z M649.3,35
	l-4.2-5.8h2.2l4.1,5.8H649.3z M640.4,29.3l-0.8-1h4.8c1.5,0,2.7-0.3,3.5-1s1.2-1.6,1.2-2.8c0-1.2-0.4-2.2-1.2-2.8
	c-0.8-0.7-2-1-3.5-1h-4.8l0.8-1V29.3z M675.4,35V20.8h-5.6v-1.7H683v1.7h-5.6V35H675.4z M703,35V19.1h2V35H703z M738.4,30.7
	c0,0.9-0.2,1.7-0.7,2.3c-0.5,0.7-1.2,1.2-2.1,1.6c-0.9,0.4-2,0.6-3.4,0.6c-1.2,0-2.4-0.2-3.5-0.6c-1.1-0.4-2-0.9-2.6-1.4l0.8-1.6
	c0.6,0.5,1.4,1,2.3,1.4c1,0.3,2,0.5,3,0.5c1.5,0,2.5-0.3,3.1-0.8s1-1.1,1-1.9c0-0.6-0.2-1.1-0.5-1.4c-0.4-0.4-0.8-0.6-1.4-0.8
	c-0.6-0.2-1.2-0.4-1.9-0.6s-1.4-0.3-2.1-0.5c-0.7-0.2-1.3-0.4-1.9-0.8c-0.6-0.3-1.1-0.7-1.4-1.3c-0.3-0.5-0.5-1.2-0.5-2.1
	s0.2-1.6,0.7-2.3c0.5-0.7,1.2-1.2,2.1-1.6c0.9-0.4,2-0.6,3.3-0.6c0.9,0,1.9,0.1,2.8,0.4c0.9,0.2,1.7,0.6,2.4,1l-0.7,1.6
	c-0.7-0.5-1.4-0.8-2.2-1s-1.5-0.3-2.3-0.3c-1.4,0-2.4,0.3-3.1,0.8c-0.6,0.5-1,1.1-1,1.9c0,0.6,0.2,1.1,0.5,1.4
	c0.4,0.3,0.8,0.6,1.4,0.8c0.6,0.2,1.2,0.4,1.9,0.5c0.7,0.2,1.4,0.3,2.1,0.5c0.7,0.2,1.3,0.4,1.9,0.8c0.6,0.3,1.1,0.7,1.4,1.2
	C738.2,29.2,738.4,29.8,738.4,30.7z M762,35V20.8h-5.6v-1.7h13.2v1.7H764V35H762z M814.1,40.5V14.1h1.9v26.4H814.1z M863.3,35V19.1
	h6.2c1.4,0,2.6,0.2,3.5,0.6c1,0.4,1.8,1.1,2.3,1.9s0.8,1.8,0.8,3c0,1.1-0.3,2.1-0.8,3c-0.5,0.8-1.3,1.5-2.3,1.9s-2.2,0.6-3.5,0.6h-5
	l0.9-0.9V35H863.3z M865.4,29.3l-0.8-1h4.8c1.5,0,2.7-0.3,3.5-1s1.2-1.6,1.2-2.8c0-1.2-0.4-2.2-1.2-2.8c-0.8-0.7-2-1-3.5-1h-4.8
	l0.8-1V29.3z M897.6,35V19.1h6.2c1.4,0,2.6,0.2,3.5,0.6c1,0.4,1.8,1.1,2.3,1.9s0.8,1.8,0.8,3c0,1.1-0.3,2.1-0.8,2.9
	s-1.3,1.5-2.3,1.9s-2.2,0.6-3.5,0.6h-5l0.9-0.9V35H897.6z M908.5,35l-4.2-5.8h2.2l4.1,5.8H908.5z M899.7,29.3l-0.8-1h4.8
	c1.5,0,2.7-0.3,3.5-1s1.2-1.6,1.2-2.8c0-1.2-0.4-2.2-1.2-2.8c-0.8-0.7-2-1-3.5-1h-4.8l0.8-1V29.3z M939,35.2c-1.6,0-3.1-0.3-4.4-1
	c-1.3-0.7-2.3-1.7-3.1-2.9c-0.7-1.2-1.1-2.6-1.1-4.2c0-1.6,0.4-2.9,1.1-4.2c0.8-1.2,1.8-2.2,3.1-2.9c1.3-0.7,2.8-1.1,4.4-1.1
	c1.6,0,3.1,0.4,4.4,1.1c1.3,0.7,2.3,1.7,3,2.9c0.8,1.2,1.1,2.6,1.1,4.2s-0.4,3-1.1,4.2c-0.7,1.2-1.7,2.2-3,2.9
	C942.1,34.8,940.7,35.2,939,35.2z M939,33.4c1.3,0,2.4-0.3,3.4-0.8c1-0.6,1.7-1.3,2.3-2.3s0.8-2.1,0.8-3.3s-0.3-2.3-0.9-3.3
	c-0.6-1-1.3-1.7-2.3-2.3c-1-0.6-2.1-0.8-3.3-0.8s-2.4,0.3-3.4,0.8s-1.7,1.3-2.3,2.3s-0.8,2-0.8,3.3s0.3,2.3,0.8,3.3
	c0.6,1,1.3,1.7,2.3,2.3C936.7,33.1,937.8,33.4,939,33.4z M981.8,33.1c-0.5,0.4-1.1,0.8-1.7,1.1c-0.6,0.3-1.3,0.5-2.1,0.7
	c-0.7,0.2-1.4,0.2-2.2,0.2c-1.7,0-3.1-0.3-4.5-1c-1.3-0.7-2.3-1.7-3.1-2.9c-0.8-1.2-1.1-2.6-1.1-4.2c0-1.6,0.4-2.9,1.1-4.2
	c0.8-1.2,1.8-2.2,3.1-2.9c1.3-0.7,2.8-1.1,4.4-1.1c1.3,0,2.5,0.2,3.5,0.6c1.1,0.4,1.9,1,2.6,1.8l-1.3,1.3c-0.7-0.7-1.4-1.1-2.2-1.4
	s-1.7-0.5-2.6-0.5c-1.2,0-2.4,0.3-3.4,0.8s-1.8,1.3-2.4,2.3c-0.6,1-0.8,2-0.8,3.3s0.3,2.3,0.8,3.3c0.6,1,1.4,1.7,2.4,2.3
	c1,0.5,2.2,0.8,3.4,0.8c0.9,0,1.8-0.1,2.6-0.4c0.8-0.3,1.5-0.7,2.2-1.3L981.8,33.1z M979.9,33.1V27h1.9v6.1H979.9z M1004.1,35V19.1
	h6.2c1.4,0,2.6,0.2,3.5,0.6c1,0.4,1.8,1.1,2.3,1.9s0.8,1.8,0.8,3c0,1.1-0.3,2.1-0.8,2.9s-1.3,1.5-2.3,1.9s-2.2,0.6-3.5,0.6h-5.1
	l0.9-0.9V35H1004.1z M1015,35l-4.2-5.8h2.2l4.1,5.8H1015z M1006.1,29.3l-0.8-1h4.8c1.5,0,2.7-0.3,3.5-1s1.2-1.6,1.2-2.8
	c0-1.2-0.4-2.2-1.2-2.8c-0.8-0.7-2-1-3.5-1h-4.8l0.8-1V29.3z M1035.7,35l7.4-15.9h2l7.3,15.9h-2l-6.7-14.8h0.7l-6.7,14.8H1035.7z
	 M1038.8,30.9l0.6-1.6h9.1l0.6,1.6H1038.8z M1072.3,35V19.1h1.8l7.2,12.1h-0.8l7.1-12.1h1.7V35h-1.9V22.2h0.3l-6.4,10.8h-0.9
	l-6.5-10.8h0.5V35H1072.3z M1112.2,35V19.1h1.8l7.2,12.1h-0.8l7.1-12.1h1.8V35h-1.9V22.2h0.3l-6.4,10.8h-0.9l-6.5-10.8h0.4V35
	H1112.2z M1153.7,26.1h8.6v1.7h-8.6V26.1z M1154,33.3h9.5V35H1152V19.1h11.2v1.7h-9.2V33.3z M1184.8,35V19.1h6.2
	c1.4,0,2.6,0.2,3.6,0.6s1.8,1.1,2.3,1.9s0.8,1.8,0.8,3c0,1.1-0.3,2.1-0.8,2.9c-0.6,0.8-1.3,1.5-2.3,1.9s-2.2,0.6-3.6,0.6h-5l0.9-0.9
	V35H1184.8z M1195.8,35l-4.2-5.8h2.2l4.1,5.8H1195.8z M1186.9,29.3l-0.8-1h4.8c1.5,0,2.7-0.3,3.5-1s1.2-1.6,1.2-2.8
	c0-1.2-0.4-2.2-1.2-2.8c-0.8-0.7-2-1-3.5-1h-4.8l0.8-1V29.3z"/>
</svg>
