<?xml version="1.0" encoding="utf-8"?>
<!-- Generator: Adobe Illustrator 24.3.0, SVG Export Plug-In . SVG Version: 6.00 Build 0)  -->
<svg version="1.1" id="Email" xmlns="http://www.w3.org/2000/svg" xmlns:xlink="http://www.w3.org/1999/xlink" x="0px" y="0px"
	 viewBox="0 0 48 48" style="enable-background:new 0 0 48 48;" xml:space="preserve">
<style type="text/css">
	.st0{fill:#EFEFEF;}
	.st1{fill:#20A39E;}
	.st2{fill:#74A5A1;}
</style>
<path class="st0" d="M24,48L24,48C10.7,48,0,37.3,0,24l0,0C0,10.7,10.7,0,24,0l0,0c13.3,0,24,10.7,24,24l0,0C48,37.3,37.3,48,24,48z
	"/>
<g>
	<g>
		<g>
			<path class="st1" d="M35,25h-2c-0.6,0-1-0.4-1-1l0,0c0-0.6,0.4-1,1-1h2c0.6,0,1,0.4,1,1l0,0C36,24.6,35.6,25,35,25z"/>
		</g>
		<g>
			<path class="st1" d="M15,25h-2c-0.6,0-1-0.4-1-1l0,0c0-0.6,0.4-1,1-1h2c0.6,0,1,0.4,1,1l0,0C16,24.6,15.6,25,15,25z"/>
		</g>
	</g>
	<g>
		<g>
			<path class="st1" d="M25,13v2c0,0.6-0.4,1-1,1l0,0c-0.6,0-1-0.4-1-1v-2c0-0.6,0.4-1,1-1l0,0C24.6,12,25,12.4,25,13z"/>
		</g>
		<g>
			<path class="st1" d="M25,33v2c0,0.6-0.4,1-1,1l0,0c-0.6,0-1-0.4-1-1v-2c0-0.6,0.4-1,1-1l0,0C24.6,32,25,32.4,25,33z"/>
		</g>
	</g>
	<g>
		<g>
			<path class="st2" d="M16.9,15.5l1.4,1.4c0.4,0.4,0.4,1,0,1.4l0,0c-0.4,0.4-1,0.4-1.4,0l-1.4-1.4c-0.4-0.4-0.4-1,0-1.4l0,0
				C15.9,15.1,16.5,15.1,16.9,15.5z"/>
		</g>
		<g>
			<path class="st1" d="M31.1,29.7l1.4,1.4c0.4,0.4,0.4,1,0,1.4l0,0c-0.4,0.4-1,0.4-1.4,0l-1.4-1.4c-0.4-0.4-0.4-1,0-1.4l0,0
				C30,29.3,30.7,29.3,31.1,29.7z"/>
		</g>
	</g>
	<g>
		<g>
			<path class="st1" d="M15.5,31.1l1.4-1.4c0.4-0.4,1-0.4,1.4,0l0,0c0.4,0.4,0.4,1,0,1.4l-1.4,1.4c-0.4,0.4-1,0.4-1.4,0l0,0
				C15.1,32.1,15.1,31.5,15.5,31.1z"/>
		</g>
		<g>
			<path class="st1" d="M29.7,16.9l1.4-1.4c0.4-0.4,1-0.4,1.4,0l0,0c0.4,0.4,0.4,1,0,1.4l-1.4,1.4c-0.4,0.4-1,0.4-1.4,0l0,0
				C29.3,18,29.3,17.3,29.7,16.9z"/>
		</g>
	</g>
	<g>
		<path class="st1" d="M24,20c2.2,0,4,1.8,4,4s-1.8,4-4,4s-4-1.8-4-4S21.8,20,24,20 M24,18c-3.3,0-6,2.7-6,6s2.7,6,6,6s6-2.7,6-6
			S27.3,18,24,18L24,18z"/>
	</g>
</g>
</svg>
