<?xml version="1.0" encoding="utf-8"?>
<!-- Generator: Adobe Illustrator 24.3.0, SVG Export Plug-In . SVG Version: 6.00 Build 0)  -->
<svg version="1.1" id="Location" xmlns="http://www.w3.org/2000/svg" xmlns:xlink="http://www.w3.org/1999/xlink" x="0px" y="0px"
	 viewBox="0 0 48 48" style="enable-background:new 0 0 48 48;" xml:space="preserve">
<style type="text/css">
	.st0{fill:#FF6663;}
</style>
<g id="Path_30" transform="translate(-276.29 -203.998)">
	<path class="st0" d="M300.3,233c-0.1,0-0.3,0-0.4-0.1c-1.5-1.3-3.6-4-3.6-5.9c0-2.2,1.8-3.9,4-3.9s4,1.8,4,3.9
		c0,1.9-2.1,4.6-3.6,5.9C300.6,232.9,300.4,233,300.3,233z M300.3,223c-2.2,0-3.9,1.8-3.9,3.9c0,2.2,1.8,3.9,3.9,3.9
		c2.2,0,3.9-1.8,3.9-3.9C304.2,224.8,302.5,223,300.3,223z"/>
	<path class="st0" d="M300.3,222c2.8,0,5,2.2,5,4.9c0,2.4-2.5,5.4-4,6.7c-0.3,0.3-0.7,0.4-1,0.4s-0.7-0.1-1-0.4
		c-1.5-1.3-4-4.2-4-6.7C295.3,224.2,297.5,222,300.3,222z M300.3,229.8c1.6,0,2.9-1.3,2.9-2.9c0-1.6-1.3-2.9-2.9-2.9
		s-2.9,1.3-2.9,2.9C297.3,228.5,298.7,229.8,300.3,229.8z"/>
</g>
</svg>
