<?xml version="1.0" encoding="utf-8"?>
<!-- Generator: Adobe Illustrator 24.3.0, SVG Export Plug-In . SVG Version: 6.00 Build 0)  -->
<svg version="1.1" id="Email" xmlns="http://www.w3.org/2000/svg" xmlns:xlink="http://www.w3.org/1999/xlink" x="0px" y="0px"
	 viewBox="0 0 48 48" style="enable-background:new 0 0 48 48;" xml:space="preserve">
<style type="text/css">
	.st0{fill:#FF6663;}
	.st1{fill:none;}
</style>
<g id="Group_32" transform="translate(16 18)">
	<path class="st0" d="M15,0H1C0.4,0,0,0.4,0,1v10c0,0.6,0.4,1,1,1h14c0.6,0,1-0.4,1-1V1C16,0.4,15.6,0,15,0z M14,10H2V2h12V10z"/>
	<g id="Path_28" transform="translate(-258 -222)">
		<path class="st1" d="M265.3,229.5c0.4,0.4,1,0.4,1.4,0l0,0l6.9-7.1c-0.2-0.3-0.6-0.4-0.9-0.4h-13.3c-0.4,0-0.7,0.2-0.9,0.4
			L265.3,229.5z"/>
		<path class="st0" d="M266,227.4l3.3-3.4h-6.6L266,227.4 M266,229.8c-0.3,0-0.5-0.1-0.7-0.3l-6.9-7.1c0.2-0.3,0.6-0.4,0.9-0.4h13.3
			c0.4,0,0.7,0.2,0.9,0.4l-6.9,7.1C266.5,229.7,266.3,229.8,266,229.8z"/>
	</g>
</g>
</svg>
