<?xml version="1.0" encoding="utf-8"?>
<!-- Generator: Adobe Illustrator 26.3.1, SVG Export Plug-In . SVG Version: 6.00 Build 0)  -->
<svg version="1.1" id="Layer_1" xmlns="http://www.w3.org/2000/svg" xmlns:xlink="http://www.w3.org/1999/xlink" x="0px" y="0px"
	 viewBox="0 0 16 16" style="enable-background:new 0 0 16 16;" xml:space="preserve">
<path d="M16,8v5c0,0.6-0.5,1-1,1c-0.6,0-1-0.4-1-1V8H6C5.4,8,5,7.5,5,7s0.5-1,1-1h8C15.1,6,16,6.9,16,8z M1.9,7L6,3.8
	c0.4-0.4,0.5-1,0.1-1.4c-0.4-0.4-1-0.5-1.4-0.1l-4,3.2c-1,0.8-1,2.3,0,3.1l4,3.2c0.4,0.4,1.1,0.3,1.4-0.1c0.4-0.4,0.3-1.1-0.1-1.4
	L1.9,7z"/>
</svg>
