<?xml version="1.0" encoding="utf-8"?>
<!-- Generator: Adobe Illustrator 26.3.1, SVG Export Plug-In . SVG Version: 6.00 Build 0)  -->
<svg version="1.1" id="Layer_1" xmlns="http://www.w3.org/2000/svg" xmlns:xlink="http://www.w3.org/1999/xlink" x="0px" y="0px"
	 viewBox="0 0 16 16" style="enable-background:new 0 0 16 16;" xml:space="preserve">
<path d="M8,2l6,12H2L8,2L8,2z M8,0C7.3,0,6.6,0.4,6.2,1.1l-6,12C-0.4,14.4,0.5,16,2,16h12c1.5,0,2.4-1.6,1.8-2.9l-6-12
	C9.4,0.4,8.7,0,8,0z M8,5C7.5,5,7,5.4,7,6v3c0,0.6,0.4,1,1,1s1-0.5,1-1V6C9,5.4,8.5,5,8,5z M8,11c-0.5,0-1,0.5-1,1c0,0.6,0.4,1,1,1
	s1-0.5,1-1C9,11.4,8.5,11,8,11z"/>
</svg>
