<?xml version="1.0" encoding="utf-8"?>
<!-- Generator: Adobe Illustrator 26.3.1, SVG Export Plug-In . SVG Version: 6.00 Build 0)  -->
<svg version="1.1" id="Layer_1" xmlns="http://www.w3.org/2000/svg" xmlns:xlink="http://www.w3.org/1999/xlink" x="0px" y="0px"
	 viewBox="0 0 16 16" style="enable-background:new 0 0 16 16;" xml:space="preserve">
<g>
	<path d="M8,0c2.3,0,4.5,0,6.8,0c0.6,0,1.1,0.4,1.2,1c0,0.1,0,0.1,0,0.2c0,4.6,0,9.1,0,13.7c0,0.6-0.5,1.1-1.1,1.1c0,0-0.1,0-0.1,0
		c-4.5,0-9.1,0-13.6,0c-0.6,0-1-0.3-1.1-0.8c0-0.1,0-0.2,0-0.3c0-4.6,0-9.1,0-13.7C0,0.5,0.5,0,1.1,0c0.5,0,1.1,0,1.6,0
		C4.5,0,6.3,0,8,0z M8.5,7c0-0.3,0-0.5,0-0.8C8.5,6,8.5,6,8.4,6C7.7,6,7.1,6,6.4,6C6.2,6,6.2,6,6.2,6.2c0,2.4,0,4.9,0,7.3
		c0,0.2,0,0.2,0.2,0.2c0.7,0,1.3,0,2,0c0.2,0,0.2,0,0.2-0.2c0-1.2,0-2.4,0-3.7c0-0.3,0-0.5,0.1-0.8C8.8,8.5,9,8.1,9.6,8
		c0.2,0,0.3,0,0.5,0c0.6,0,0.9,0.3,1.1,0.8c0.1,0.3,0.1,0.6,0.1,0.9c0,1.3,0,2.5,0,3.8c0,0.2,0,0.2,0.2,0.2c0.7,0,1.3,0,2,0
		c0.1,0,0.2,0,0.2-0.2c0-1.5,0-2.9,0-4.4c0-0.5-0.1-1-0.2-1.4c-0.2-0.8-0.8-1.5-1.6-1.7c-0.5-0.2-1.6-0.3-2.4,0.2
		C9.1,6.3,8.8,6.6,8.5,7z M2.3,9.8c0,1.2,0,2.4,0,3.7c0,0.1,0,0.2,0.2,0.2c0.7,0,1.4,0,2.1,0c0.1,0,0.2,0,0.2-0.2c0-2.4,0-4.9,0-7.3
		C4.8,6,4.7,6,4.6,6C3.9,6,3.2,6,2.5,6C2.4,6,2.3,6,2.3,6.2C2.3,7.4,2.3,8.6,2.3,9.8z M3.5,5c0.8,0,1.4-0.6,1.4-1.4
		c0-0.8-0.6-1.4-1.4-1.4c-0.8,0-1.4,0.6-1.4,1.4C2.2,4.3,2.8,5,3.5,5z"/>
</g>
</svg>
