<?xml version="1.0" encoding="utf-8"?>
<!-- Generator: Adobe Illustrator 26.3.1, SVG Export Plug-In . SVG Version: 6.00 Build 0)  -->
<svg version="1.1" id="Layer_1" xmlns="http://www.w3.org/2000/svg" xmlns:xlink="http://www.w3.org/1999/xlink" x="0px" y="0px"
	 viewBox="0 0 16 16" style="enable-background:new 0 0 16 16;" xml:space="preserve">
<path d="M14,0H2C0.9,0,0,0.9,0,2v8c0,1.1,0.9,2,2,2v3c0,0.6,0.5,1,1,1c0.2,0,0.4,0,0.6-0.2L8,12h6c1.1,0,2-0.9,2-2V2
	C16,0.9,15.1,0,14,0z M8,10H7.3l-0.6,0.5L4,12.8V10H2V2h12v8H8L8,10z M12,4.5C12,4.8,11.8,5,11.5,5h-7C4.2,5,4,4.8,4,4.5
	C4,4.2,4.2,4,4.5,4h7C11.8,4,12,4.2,12,4.5z M12,7.5C12,7.8,11.8,8,11.5,8h-7C4.2,8,4,7.8,4,7.5C4,7.2,4.2,7,4.5,7h7
	C11.8,7,12,7.2,12,7.5z"/>
</svg>
