<?xml version="1.0" encoding="utf-8"?>
<!-- Generator: Adobe Illustrator 26.3.1, SVG Export Plug-In . SVG Version: 6.00 Build 0)  -->
<svg version="1.1" id="Layer_1" xmlns="http://www.w3.org/2000/svg" xmlns:xlink="http://www.w3.org/1999/xlink" x="0px" y="0px"
	 viewBox="0 0 16 16" style="enable-background:new 0 0 16 16;" xml:space="preserve">
<path d="M14,12V6c0-3.3-2.7-6-6-6C4.7,0,2,2.7,2,6v6c-0.5,0-1,0.5-1,1c0,0.6,0.5,1,1,1h4c0,1.1,0.9,2,2,2s2-0.9,2-2h4
	c0.6,0,1-0.4,1-1C15,12.4,14.5,12,14,12z M4,6c0-2.2,1.8-4,4-4c2.2,0,4,1.8,4,4v6H4V6z"/>
</svg>
