<?xml version="1.0" encoding="utf-8"?>
<!-- Generator: Adobe Illustrator 26.3.1, SVG Export Plug-In . SVG Version: 6.00 Build 0)  -->
<svg version="1.1" id="Layer_1" xmlns="http://www.w3.org/2000/svg" xmlns:xlink="http://www.w3.org/1999/xlink" x="0px" y="0px"
	 viewBox="0 0 16 16" style="enable-background:new 0 0 16 16;" xml:space="preserve">
<path d="M9.1,0.1C8.5,0,8,0.5,8,1.1c0,0.5,0.4,0.9,0.9,1c3.3,0.5,5.8,3.7,5,7.2c-0.5,2.3-2.3,4.1-4.6,4.6C5.4,14.7,2,11.7,2,8
	c0-1.4,0.5-2.8,1.4-3.8l1.2,0.9c0.4,0.3,0.9,0,0.9-0.4V0.5c0-0.4-0.4-0.6-0.7-0.5L0.8,1.2c-0.4,0.1-0.5,0.7-0.2,1L1.8,3
	c-1.4,1.7-2.1,4-1.6,6.5c0.6,3.1,3.1,5.7,6.2,6.3c5.1,1,9.6-2.9,9.6-7.8C16,4,13,0.6,9.1,0.1L9.1,0.1z"/>
</svg>
