<?xml version="1.0" encoding="utf-8"?>
<!-- Generator: Adobe Illustrator 26.3.1, SVG Export Plug-In . SVG Version: 6.00 Build 0)  -->
<svg version="1.1" id="Layer_1" xmlns="http://www.w3.org/2000/svg" xmlns:xlink="http://www.w3.org/1999/xlink" x="0px" y="0px"
	 viewBox="0 0 16 16" style="enable-background:new 0 0 16 16;" xml:space="preserve">
<path d="M0,7V5c0-1.1,0.9-2,2-2h8c0.6,0,1,0.5,1,1c0,0.6-0.4,1-1,1H2v2c0,0.6-0.5,1-1,1C0.5,8,0,7.6,0,7z M14,4l-2.7,2.3
	c-0.4,0.4-0.4,1,0,1.4c0.4,0.4,1,0.4,1.4,0l2.7-2.3c0.8-0.8,0.8-2,0-2.8l-2.7-2.3c-0.4-0.4-1-0.4-1.4,0c-0.4,0.4-0.4,1,0,1.4L14,4
	L14,4z M15,8c-0.6,0-1,0.4-1,1v2H6c-0.5,0-1,0.4-1,1s0.5,1,1,1h8c1.1,0,2-0.9,2-2V9C16,8.5,15.5,8,15,8z M2,12l2.7-2.3
	c0.4-0.4,0.4-1,0-1.4c-0.4-0.4-1-0.4-1.4,0l-2.7,2.3c-0.8,0.8-0.8,2,0,2.8l2.7,2.3c0.4,0.4,1,0.4,1.4,0c0.4-0.4,0.4-1,0-1.4L2,12
	L2,12z"/>
</svg>
