<?xml version="1.0" encoding="utf-8"?>
<!-- Generator: Adobe Illustrator 26.3.1, SVG Export Plug-In . SVG Version: 6.00 Build 0)  -->
<svg version="1.1" id="Layer_1" xmlns="http://www.w3.org/2000/svg" xmlns:xlink="http://www.w3.org/1999/xlink" x="0px" y="0px"
	 viewBox="0 0 1200 600" style="enable-background:new 0 0 1200 600;" xml:space="preserve">
<style type="text/css">
	.st0{fill:#1A182F;}
	.st1{fill:#FF6561;}
	.st2{fill:#61FBFF;}
</style>
<rect class="st0" width="1200" height="600"/>
<g>
	<path class="st1" d="M648,170.7c0.4,9.2-2.5,18.8-7.9,25.8c-1.7,2.1-4.2,2.9-6.7,2.1c-4.6-1.7-16.7-7.1-21.7-12.1
		c-0.8-0.8-0.8-2.9,0-4.2c4.6-5,19.2-18.8,28.8-22.5C645.9,157.8,647.5,163.6,648,170.7z"/>
	<path class="st1" d="M560,160.3c10,3.8,23.8,17.1,28.8,22.5c0.8,0.8,0.8,2.9,0,4.2c-4.6,4.6-17.1,10.4-21.7,12.1
		c-2.5,0.8-5,0-6.7-2.1c-5-7.1-8.3-16.7-7.9-25.8C552.5,163.6,553.7,157.8,560,160.3L560,160.3z"/>
	<path class="st2" d="M592.9,256.6l-70-70c-1.7-1.7-4.2-2.9-7.1-2.9h-13.3c-2.1,0-3.3,2.5-1.7,4.2l90.9,90.9
		c1.7,1.7,4.2,0.4,4.2-1.7v-13.3C595.8,260.8,595,258.3,592.9,256.6z"/>
	<path class="st2" d="M607.1,102.3l70,70c1.7,1.7,4.2,2.9,7.1,2.9h13.3c2.1,0,3.3-2.5,1.7-4.2l-90.9-90.9c-1.7-1.7-4.2-0.4-4.2,1.7
		v13.3C604.2,98.2,605,100.7,607.1,102.3z"/>
	<path class="st2" d="M522.9,172.4l70-70c1.7-1.7,2.9-4.2,2.9-7.1V81.9c0-2.1-2.5-3.3-4.2-1.7l-90.9,90.9c-1.7,1.7-0.4,4.2,1.7,4.2
		h13.3C518.7,175.3,521.2,174.5,522.9,172.4z"/>
	<path class="st2" d="M677.1,186.5l-70,70c-1.7,1.7-2.9,4.2-2.9,7.1V277c0,2.1,2.5,3.3,4.2,1.7l90.9-90.9c1.7-1.7,0.4-4.2-1.7-4.2
		h-13.3C681.3,183.6,678.8,184.5,677.1,186.5L677.1,186.5z"/>
	<path class="st1" d="M299.5,520.5c-9.1,0-17.9-1.5-26.3-4.4c-8.3-3-14.7-6.9-19.3-11.6l5.1-10c4.3,4.2,10.1,7.8,17.3,10.7
		c7.4,2.8,15.1,4.2,23.1,4.2c7.7,0,14-0.9,18.7-2.8c4.9-2,8.5-4.6,10.7-7.9c2.3-3.3,3.5-6.9,3.5-10.9c0-4.8-1.4-8.6-4.2-11.6
		c-2.7-2.9-6.2-5.2-10.7-6.8c-4.4-1.8-9.3-3.3-14.7-4.6c-5.4-1.3-10.7-2.6-16.1-4c-5.4-1.5-10.3-3.5-14.9-6
		c-4.4-2.5-8.1-5.7-10.9-9.6c-2.7-4.1-4-9.4-4-15.9c0-6.1,1.6-11.6,4.7-16.6c3.3-5.1,8.2-9.2,14.9-12.3c6.7-3.2,15.2-4.7,25.6-4.7
		c6.9,0,13.7,1,20.5,3c6.8,1.9,12.6,4.5,17.5,7.9l-4.4,10.3c-5.3-3.5-10.9-6.1-16.8-7.7c-5.8-1.6-11.5-2.5-17-2.5
		c-7.4,0-13.4,1-18.2,3c-4.8,2-8.4,4.7-10.7,8.1c-2.2,3.3-3.3,7-3.3,11.2c0,4.8,1.3,8.6,4,11.6c2.8,2.9,6.4,5.2,10.9,6.8
		c4.6,1.6,9.5,3.1,14.9,4.4c5.4,1.3,10.7,2.7,15.9,4.2c5.4,1.5,10.3,3.5,14.7,6c4.6,2.3,8.2,5.5,10.9,9.5c2.8,4,4.2,9.2,4.2,15.6
		c0,6-1.6,11.5-4.9,16.6c-3.3,5-8.3,9.1-15.1,12.3C318.6,519,310.1,520.5,299.5,520.5z M382.3,519.5V396.8h45.9
		c10.4,0,19.3,1.7,26.8,5.1c7.5,3.3,13.2,8.1,17.2,14.4c4.1,6.2,6.1,13.7,6.1,22.6c0,8.6-2,16.1-6.1,22.4c-4,6.2-9.7,11-17.2,14.4
		c-7.5,3.4-16.4,5.1-26.8,5.1h-38.7l5.8-6.1v44.8H382.3z M395.2,475.7l-5.8-6.3h38.4c12.3,0,21.5-2.6,27.9-7.9
		c6.4-5.4,9.6-12.9,9.6-22.6c0-9.8-3.2-17.4-9.6-22.8c-6.3-5.4-15.6-8.1-27.9-8.1h-38.4l5.8-6.1V475.7z M515.1,519.5V396.8h13v122.6
		H515.1z M576.7,519.5V396.8h49.9c13.1,0,24.5,2.6,34.3,7.9c9.9,5.1,17.6,12.3,23.1,21.5c5.5,9.2,8.2,19.9,8.2,31.9
		c0,12-2.7,22.7-8.2,31.9c-5.5,9.2-13.2,16.5-23.1,21.7c-9.8,5.1-21.3,7.7-34.3,7.7H576.7z M589.6,508.3h36.3
		c10.9,0,20.3-2.1,28.2-6.3c8.1-4.3,14.3-10.2,18.7-17.7c4.4-7.6,6.7-16.3,6.7-26.1c0-9.9-2.2-18.6-6.7-26.1
		c-4.4-7.5-10.7-13.3-18.7-17.5c-7.9-4.3-17.3-6.5-28.2-6.5h-36.3V508.3z M741.7,451.7h64.8v11h-64.8V451.7z M743.1,508.3h73.8v11.2
		h-86.7V396.8h84.1v11.2h-71.1V508.3z M883.8,519.5v-45.5l3,8.1l-52-85.1h13.8l45.7,74.8H887l45.7-74.8h13l-52,85.1l3-8.1v45.5
		H883.8z"/>
	<path class="st2" d="M264.7,361.7c-2,0-3.9-0.4-5.5-1.3c-1.6-0.9-2.9-2.1-3.8-3.7c-0.9-1.6-1.4-3.3-1.4-5.3s0.5-3.7,1.4-5.3
		c0.9-1.5,2.2-2.8,3.8-3.7c1.6-0.9,3.5-1.3,5.5-1.3c1.6,0,3.1,0.2,4.3,0.7c1.3,0.5,2.4,1.2,3.3,2.2l-1.6,1.7
		c-0.8-0.8-1.7-1.4-2.7-1.8c-1-0.4-2.1-0.6-3.2-0.6c-1.6,0-3,0.4-4.2,1.1c-1.3,0.7-2.2,1.6-2.9,2.8c-0.7,1.2-1.1,2.6-1.1,4.1
		s0.4,2.9,1.1,4.2c0.7,1.2,1.7,2.2,2.9,2.8c1.3,0.7,2.7,1,4.2,1c1.2,0,2.2-0.2,3.2-0.6c1-0.4,1.9-1,2.7-1.8l1.6,1.7
		c-0.9,1-2,1.7-3.3,2.2C267.7,361.5,266.3,361.7,264.7,361.7z M306.9,361.7c-2,0-3.9-0.4-5.5-1.3c-1.6-0.9-2.9-2.1-3.9-3.7
		c-0.9-1.6-1.4-3.3-1.4-5.3s0.5-3.7,1.4-5.3c0.9-1.5,2.2-2.8,3.9-3.7c1.6-0.9,3.5-1.3,5.5-1.3c2.1,0,3.9,0.5,5.5,1.3
		c1.6,0.9,2.9,2.1,3.8,3.7c0.9,1.5,1.4,3.3,1.4,5.3s-0.5,3.7-1.4,5.3c-0.9,1.5-2.2,2.8-3.8,3.7C310.8,361.3,309,361.7,306.9,361.7z
		 M306.9,359.5c1.6,0,3-0.3,4.2-1c1.2-0.7,2.2-1.7,2.9-2.9c0.7-1.2,1.1-2.6,1.1-4.2s-0.4-2.9-1.1-4.1c-0.7-1.2-1.7-2.2-2.9-2.8
		c-1.2-0.7-2.6-1.1-4.2-1.1c-1.6,0-3,0.4-4.2,1.1c-1.2,0.7-2.2,1.6-2.9,2.8c-0.7,1.2-1.1,2.6-1.1,4.1s0.4,2.9,1.1,4.2
		c0.7,1.2,1.7,2.2,2.9,2.9C304,359.2,305.4,359.5,306.9,359.5z M344.5,361.5v-20.1h2.2l9.1,15.2h-1l9-15.2h2.2v20.1h-2.5v-16.2h0.4
		l-8.1,13.6h-1.2l-8.2-13.6h0.6v16.2H344.5z M394.7,361.5v-20.1h7.8c1.8,0,3.2,0.3,4.5,0.8c1.3,0.5,2.2,1.3,2.9,2.4
		c0.7,1,1,2.3,1,3.7c0,1.4-0.3,2.7-1,3.7c-0.7,1-1.7,1.8-2.9,2.4c-1.2,0.5-2.7,0.8-4.5,0.8h-6.4l1.1-1.2v7.4H394.7z M397.2,354.4
		l-1-1.2h6.1c1.9,0,3.4-0.4,4.4-1.2c1-0.9,1.5-2,1.5-3.6c0-1.5-0.5-2.7-1.5-3.6c-1-0.8-2.5-1.2-4.4-1.2h-6.1l1-1.2V354.4z
		 M446.7,361.7c-2,0-3.9-0.4-5.5-1.3c-1.6-0.9-2.9-2.1-3.9-3.7c-0.9-1.6-1.4-3.3-1.4-5.3s0.5-3.7,1.4-5.3c0.9-1.5,2.2-2.8,3.9-3.7
		c1.6-0.9,3.5-1.3,5.5-1.3c2.1,0,3.9,0.5,5.5,1.3c1.6,0.9,2.9,2.1,3.8,3.7c0.9,1.5,1.4,3.3,1.4,5.3s-0.5,3.7-1.4,5.3
		c-0.9,1.5-2.2,2.8-3.8,3.7C450.6,361.3,448.7,361.7,446.7,361.7z M446.7,359.5c1.6,0,3-0.3,4.2-1c1.2-0.7,2.2-1.7,2.9-2.9
		c0.7-1.2,1.1-2.6,1.1-4.2s-0.4-2.9-1.1-4.1c-0.7-1.2-1.7-2.2-2.9-2.8c-1.2-0.7-2.6-1.1-4.2-1.1c-1.6,0-3,0.4-4.2,1.1
		c-1.2,0.7-2.2,1.6-2.9,2.8c-0.7,1.2-1.1,2.6-1.1,4.1s0.4,2.9,1.1,4.2c0.7,1.2,1.7,2.2,2.9,2.9C443.7,359.2,445.1,359.5,446.7,359.5
		z M484.2,361.5v-20.1h2.1l13.6,16.9h-1v-16.9h2.6v20.1h-2.1l-13.6-16.9h1v16.9H484.2z M532.4,350.3h10.8v2.1h-10.8V350.3z
		 M532.8,359.4h12v2.1h-14.6v-20.1h14.2v2.1h-11.6V359.4z M571.7,361.5v-20.1h2.1l13.6,16.9h-1v-16.9h2.6v20.1h-2.1l-13.6-16.9h1
		v16.9H571.7z M621.3,361.5v-17.9h-7.1v-2.1h16.7v2.1h-7.1v17.9H621.3z M686.7,361.5v-20.1h2.6v17.9h11.2v2.1H686.7z M725.8,361.5
		v-20.1h2.6v20.1H725.8z M757.1,361.5v-20.1h8.9c2.3,0,4.1,0.5,5.4,1.3c1.3,0.9,1.9,2.2,1.9,3.8c0,1.6-0.6,2.9-1.7,3.8
		c-1.1,0.9-2.6,1.3-4.3,1.3l0.5-0.8c2.1,0,3.7,0.4,4.9,1.3c1.2,0.9,1.7,2.2,1.7,3.9c0,1.7-0.7,3-2,4c-1.3,0.9-3.3,1.4-5.9,1.4H757.1
		z M759.7,359.5h6.9c1.7,0,3-0.3,3.9-0.9c0.9-0.6,1.3-1.5,1.3-2.7c0-1.3-0.4-2.2-1.3-2.7c-0.9-0.6-2.2-0.9-3.9-0.9h-7.3v-2h6.6
		c1.6,0,2.8-0.3,3.6-0.9c0.9-0.6,1.3-1.5,1.3-2.6c0-1.1-0.4-2-1.3-2.6c-0.9-0.6-2.1-0.9-3.6-0.9h-6.2V359.5z M801.1,361.5v-20.1h7.8
		c1.8,0,3.2,0.3,4.5,0.8c1.3,0.5,2.2,1.3,2.9,2.4c0.7,1,1,2.3,1,3.7c0,1.4-0.3,2.7-1,3.7s-1.7,1.8-2.9,2.4c-1.2,0.5-2.7,0.8-4.5,0.8
		h-6.4l1.1-1.1v7.4H801.1z M814.9,361.5l-5.3-7.3h2.8l5.2,7.3H814.9z M803.7,354.4l-1-1.2h6.1c1.9,0,3.4-0.4,4.4-1.2
		c1-0.9,1.5-2,1.5-3.6c0-1.5-0.5-2.7-1.5-3.6c-1-0.8-2.5-1.2-4.4-1.2h-6.1l1-1.2V354.4z M840.9,361.5l9.3-20.1h2.5l9.3,20.1h-2.6
		l-8.4-18.7h0.9l-8.5,18.7H840.9z M844.9,356.3l0.7-2.1H857l0.7,2.1H844.9z M887.2,361.5v-20.1h7.8c1.8,0,3.2,0.3,4.5,0.8
		c1.3,0.5,2.2,1.3,2.9,2.4c0.7,1,1,2.3,1,3.7c0,1.4-0.3,2.7-1,3.7c-0.7,1-1.7,1.8-2.9,2.4c-1.2,0.5-2.7,0.8-4.5,0.8h-6.4l1.1-1.1
		v7.4H887.2z M900.9,361.5l-5.3-7.3h2.8l5.2,7.3H900.9z M889.7,354.4l-1-1.2h6.1c1.9,0,3.4-0.4,4.4-1.2c1-0.9,1.5-2,1.5-3.6
		c0-1.5-0.5-2.7-1.5-3.6c-1-0.8-2.5-1.2-4.4-1.2h-6.1l1-1.2V354.4z M935.2,361.5V354l0.5,1.7l-8.8-14.3h2.7l7.6,12.2h-1.3l7.6-12.2
		h2.6l-8.8,14.3l0.5-1.7v7.5H935.2z"/>
</g>
</svg>
