<?xml version="1.0" encoding="utf-8"?>
<!-- Generator: Adobe Illustrator 26.3.1, SVG Export Plug-In . SVG Version: 6.00 Build 0)  -->
<svg version="1.1" id="Layer_1" xmlns="http://www.w3.org/2000/svg" xmlns:xlink="http://www.w3.org/1999/xlink" x="0px" y="0px"
	 viewBox="0 0 750.2 350.3" style="enable-background:new 0 0 750.2 350.3;" xml:space="preserve">
<style type="text/css">
	.st0{fill:#FF6561;}
	.st1{fill:#3E9A9E;}
</style>
<g>
	<g>
		<path class="st0" d="M0,97.1L44.4,0h10.1l44.4,97.1H88.1L47.3,6h4.2L10.7,97.1H0z M17.5,71.2l3.1-8.3H77l3.1,8.3H17.5z
			 M121.9,97.1V0h8.5l44.4,75.7h-4.4l44-75.7h8.5v97.1h-9.8V15.4h2.4L175,84.8h-4.9l-40.8-69.4h2.6v81.7H121.9z M245.8,97.1L290.2,0
			h10.1l44.4,97.1h-10.8L293.1,6h4.2l-40.8,91.1H245.8z M263.3,71.2l3.1-8.3h56.5l3.1,8.3H263.3z M367.7,97.1V0h8.5l67,84.3h-4.4V0
			h10.1v97.1h-8.5l-66.9-84.3h4.4v84.3H367.7z M487.5,97.1V0H527c10.4,0,19.4,2.1,27.2,6.2c7.9,4.1,14,9.8,18.3,17.1
			S579,39,579,48.5s-2.2,17.9-6.5,25.2c-4.3,7.3-10.5,13-18.3,17.2C546.4,95,537.4,97,527,97h-39.5V97.1z M497.8,88.2h28.7
			c8.6,0,16-1.7,22.3-5c6.4-3.4,11.3-8.1,14.8-14c3.5-6,5.3-12.9,5.3-20.7c0-7.9-1.8-14.8-5.3-20.7s-8.5-10.5-14.8-13.9
			s-13.7-5.1-22.3-5.1h-28.7V88.2z"/>
		<polygon class="st0" points="592.1,97.1 636.5,0 646.7,0 691,97.1 680.2,97.1 639.4,6 643.6,6 602.8,97.1 		"/>
		<polygon class="st0" points="609.6,71.2 612.7,62.8 669.1,62.8 672.2,71.2 		"/>
		<g>
			<path class="st0" d="M36.1,266.9c-7.2,0-14.1-1.2-20.8-3.5C8.7,261.1,3.6,258,0,254.3l4-7.9c3.4,3.3,8,6.1,13.7,8.5
				c5.8,2.2,11.9,3.3,18.3,3.3c6.1,0,11.1-0.7,14.8-2.2c3.9-1.6,6.7-3.7,8.5-6.2c1.8-2.6,2.8-5.5,2.8-8.6c0-3.8-1.1-6.8-3.3-9.2
				c-2.1-2.3-4.9-4.1-8.5-5.4c-3.5-1.4-7.4-2.6-11.7-3.6s-8.5-2.1-12.8-3.2c-4.3-1.2-8.2-2.8-11.8-4.7c-3.5-1.9-6.4-4.5-8.6-7.6
				c-2.1-3.2-3.2-7.4-3.2-12.6c0-4.8,1.2-9.2,3.7-13.2c2.6-4.1,6.5-7.3,11.8-9.7c5.3-2.5,12-3.7,20.3-3.7c5.5,0,10.9,0.8,16.2,2.4
				c5.4,1.5,10,3.6,13.9,6.2l-3.5,8.2c-4.2-2.8-8.6-4.8-13.3-6.1c-4.6-1.3-9.1-1.9-13.5-1.9c-5.8,0-10.6,0.8-14.4,2.4
				s-6.6,3.7-8.5,6.4c-1.8,2.6-2.6,5.5-2.6,8.9c0,3.8,1.1,6.8,3.2,9.2c2.2,2.3,5.1,4.1,8.6,5.4c3.6,1.3,7.5,2.5,11.8,3.5
				s8.5,2.1,12.6,3.3c4.3,1.2,8.1,2.8,11.7,4.7c3.6,1.8,6.5,4.3,8.6,7.5c2.2,3.1,3.3,7.3,3.3,12.3c0,4.7-1.3,9.1-3.9,13.2
				c-2.6,4-6.6,7.2-11.9,9.7C51.2,265.7,44.4,266.9,36.1,266.9z"/>
			<polygon class="st0" points="86,266.1 130.4,169 140.6,169 184.9,266.1 174.1,266.1 133.3,175 137.5,175 96.7,266.1 			"/>
			<polygon class="st0" points="103.5,240.2 106.6,231.8 163,231.8 166.1,240.2 			"/>
			<rect x="217.1" y="212.4" class="st0" width="51.3" height="8.7"/>
			<polygon class="st0" points="218.2,257.2 276.6,257.2 276.6,266.1 207.9,266.1 207.9,169 274.5,169 274.5,177.9 218.2,177.9 			
				"/>
			<polygon class="st0" points="307.7,266.1 307.7,169 316.1,169 383.1,253.3 378.7,253.3 378.7,169 388.8,169 388.8,266.1 
				380.4,266.1 313.5,181.8 317.9,181.8 317.9,266.1 			"/>
			<polygon class="st0" points="417.9,266.1 417.9,259 485.3,174 486.4,177.9 418.9,177.9 418.9,169 495.9,169 495.9,176.1 
				428.6,261.1 427.3,257.2 497.5,257.2 497.5,266.1 			"/>
		</g>
	</g>
	<g>
		<path class="st0" d="M692.8,230.3c0.5,10.1-2.8,20.7-8.7,28.5c-1.8,2.3-4.6,3.2-7.4,2.3c-5.1-1.8-18.4-7.8-23.9-13.3
			c-0.9-0.9-0.9-3.2,0-4.6c5.1-5.5,21.2-20.7,31.7-24.8C690.5,216,692.3,222.5,692.8,230.3z"/>
		<path class="st0" d="M595.7,218.8c11,4.1,26.2,18.9,31.7,24.8c0.9,0.9,0.9,3.2,0,4.6c-5.1,5.1-18.9,11.5-23.9,13.3
			c-2.8,0.9-5.5,0-7.4-2.3c-5.5-7.8-9.2-18.4-8.7-28.5C587.4,222.5,588.8,216,595.7,218.8L595.7,218.8z"/>
		<path class="st1" d="M632.1,325.1l-77.3-77.3c-1.8-1.8-4.6-3.2-7.8-3.2h-14.7c-2.3,0-3.7,2.8-1.8,4.6l100.3,100.3
			c1.8,1.8,4.6,0.5,4.6-1.8V333C635.3,329.7,634.4,326.9,632.1,325.1z"/>
		<path class="st1" d="M647.7,154.8l77.3,77.3c1.8,1.8,4.6,3.2,7.8,3.2h14.7c2.3,0,3.7-2.8,1.8-4.6L649.1,130.5
			c-1.8-1.8-4.6-0.5-4.6,1.8V147C644.5,150.2,645.4,153,647.7,154.8z"/>
		<path class="st1" d="M554.7,232.1l77.3-77.3c1.8-1.8,3.2-4.6,3.2-7.8v-14.7c0-2.3-2.8-3.7-4.6-1.8L530.4,230.8
			c-1.8,1.8-0.5,4.6,1.8,4.6h14.7C550.1,235.4,552.9,234.4,554.7,232.1z"/>
		<path class="st1" d="M725,247.8l-77.3,77.3c-1.8,1.8-3.2,4.6-3.2,7.8v14.7c0,2.3,2.8,3.7,4.6,1.8l100.3-100.3
			c1.8-1.8,0.5-4.6-1.8-4.6h-14.7C729.6,244.6,726.8,245.5,725,247.8L725,247.8z"/>
	</g>
	<path class="st1" d="M7.5,344.9c-1.4,0-2.8-0.2-4.2-0.7c-1.3-0.4-2.4-1-3.3-1.8l1.3-2.3c0.7,0.6,1.6,1.2,2.6,1.6s2.3,0.6,3.5,0.6
		c1.5,0,2.7-0.3,3.5-1c0.9-0.7,1.3-1.5,1.3-2.6s-0.4-1.9-1.2-2.6s-2.1-1-3.8-1H5.6v-2l6.1-7.5l0.4,1.2H0.9v-2.5h13.5v2l-6,7.4
		l-1.5-0.9h1c2.5,0,4.3,0.6,5.5,1.7s1.9,2.5,1.9,4.2c0,1.1-0.3,2.2-0.8,3.1c-0.6,1-1.4,1.7-2.6,2.3C10.7,344.6,9.2,344.9,7.5,344.9z
		 M26.3,344.7v-16.5h7.2c1.9,0,3.5,0.3,4.8,1c1.4,0.7,2.4,1.6,3.2,2.9c0.8,1.2,1.1,2.7,1.1,4.4s-0.4,3.1-1.1,4.4
		c-0.7,1.2-1.8,2.2-3.2,2.9c-1.4,0.7-3,1-4.8,1L26.3,344.7L26.3,344.7z M29.2,342.3h4.3c1.4,0,2.5-0.2,3.5-0.7s1.7-1.2,2.2-2.1
		s0.8-1.9,0.8-3.1s-0.3-2.3-0.8-3.1c-0.5-0.9-1.2-1.6-2.2-2.1s-2.1-0.7-3.5-0.7h-4.3V342.3z M65.7,344.7l7.6-16.5h2.8l7.6,16.5h-2.9
		l-6.6-15.1h1l-6.7,15.1H65.7z M69.2,340.7l0.8-2.2h9l0.8,2.2H69.2z M93.5,344.7v-16.5h6.8c1.5,0,2.7,0.2,3.8,0.7
		c1,0.4,1.9,1.1,2.4,2c0.6,0.9,0.9,1.9,0.9,3.1s-0.3,2.2-0.9,3.1s-1.4,1.5-2.4,2c-1,0.4-2.3,0.7-3.8,0.7H95l1.3-1.3v6.2L93.5,344.7
		L93.5,344.7z M104.5,344.7l-4.3-6h3.1l4.3,6H104.5z M96.3,338.8l-1.1-1.3h4.8c1.4,0,2.5-0.3,3.3-0.9s1.1-1.5,1.1-2.6
		s-0.4-2-1.1-2.6s-1.8-0.9-3.3-0.9h-4.8l1.1-1.3V338.8z M121.5,344.7v-14.2h-5.6v-2.3H130v2.3h-5.6v14.2H121.5z M139.9,344.7v-16.5
		h2.8v16.5H139.9z M166.9,340c0,1-0.3,1.9-0.8,2.6s-1.3,1.3-2.3,1.7c-1,0.4-2.2,0.6-3.6,0.6c-1.3,0-2.5-0.2-3.8-0.5
		c-1.2-0.4-2.1-0.9-2.8-1.5l1.1-2.2c0.7,0.5,1.5,1,2.5,1.3s2,0.5,3.1,0.5c1.4,0,2.4-0.2,2.9-0.7c0.6-0.5,0.8-1,0.8-1.6
		c0-0.5-0.2-1-0.6-1.3c-0.3-0.3-0.8-0.6-1.4-0.8c-0.6-0.2-1.3-0.4-2-0.5c-0.7-0.2-1.4-0.3-2.1-0.5c-0.7-0.2-1.3-0.5-2-0.8
		c-0.6-0.3-1.1-0.8-1.4-1.3c-0.4-0.6-0.6-1.3-0.6-2.2c0-1,0.3-1.9,0.8-2.6s1.3-1.3,2.3-1.7c1-0.4,2.2-0.6,3.6-0.6c1,0,2,0.1,3,0.3
		c1,0.2,1.8,0.6,2.6,1.1l-1,2.3c-0.7-0.5-1.5-0.8-2.3-1s-1.6-0.3-2.4-0.3c-1.3,0-2.3,0.2-2.9,0.7c-0.6,0.4-0.9,1-0.9,1.7
		c0,0.5,0.2,1,0.6,1.3c0.4,0.3,0.8,0.6,1.4,0.8c0.6,0.2,1.3,0.3,2,0.5s1.4,0.3,2.1,0.5c0.7,0.2,1.3,0.5,2,0.8
		c0.6,0.3,1.1,0.8,1.4,1.3C166.7,338.4,166.9,339.1,166.9,340z M180.4,344.7v-14.2h-5.6v-2.3h14.1v2.3h-5.6v14.2H180.4z
		 M213.9,350.3V323h2.6v27.3H213.9z M244.1,344.7v-16.5h6.8c1.5,0,2.7,0.2,3.8,0.7c1,0.4,1.9,1.1,2.4,2c0.6,0.9,0.9,1.9,0.9,3.1
		s-0.3,2.3-0.9,3.1c-0.6,0.9-1.4,1.5-2.4,2s-2.3,0.7-3.8,0.7h-5.2l1.3-1.3v6.2L244.1,344.7L244.1,344.7z M246.9,338.8l-1.1-1.3h4.8
		c1.4,0,2.5-0.3,3.3-0.9s1.1-1.5,1.1-2.6s-0.4-2-1.1-2.6c-0.7-0.6-1.8-0.9-3.3-0.9h-4.8l1.1-1.3V338.8z M269.3,344.7v-16.5h6.8
		c1.5,0,2.7,0.2,3.8,0.7c1,0.4,1.9,1.1,2.4,2c0.6,0.9,0.9,1.9,0.9,3.1s-0.3,2.2-0.9,3.1s-1.4,1.5-2.4,2c-1,0.4-2.3,0.7-3.8,0.7h-5.2
		l1.3-1.3v6.2L269.3,344.7L269.3,344.7z M280.3,344.7l-4.3-6h3.1l4.3,6H280.3z M272.1,338.8l-1.1-1.3h4.8c1.4,0,2.5-0.3,3.3-0.9
		s1.1-1.5,1.1-2.6s-0.4-2-1.1-2.6s-1.8-0.9-3.3-0.9H271l1.1-1.3V338.8z M302,344.9c-1.7,0-3.2-0.4-4.6-1.1s-2.4-1.7-3.2-3
		c-0.8-1.3-1.2-2.8-1.2-4.4s0.4-3.1,1.2-4.3c0.8-1.3,1.9-2.3,3.2-3c1.4-0.7,2.9-1.1,4.6-1.1s3.3,0.4,4.6,1.1c1.4,0.7,2.4,1.7,3.2,3
		c0.8,1.3,1.2,2.7,1.2,4.3c0,1.6-0.4,3.1-1.2,4.4c-0.8,1.3-1.8,2.3-3.2,3C305.3,344.5,303.8,344.9,302,344.9z M302,342.5
		c1.2,0,2.2-0.3,3.1-0.8s1.7-1.2,2.2-2.2c0.5-0.9,0.8-2,0.8-3.1c0-1.2-0.3-2.2-0.8-3.1s-1.3-1.6-2.2-2.2c-0.9-0.5-2-0.8-3.1-0.8
		c-1.2,0-2.2,0.3-3.1,0.8s-1.7,1.2-2.2,2.1s-0.8,2-0.8,3.1s0.3,2.2,0.8,3.1s1.3,1.6,2.2,2.2C299.8,342.2,300.9,342.5,302,342.5z
		 M336.1,342.8c-0.5,0.4-1.2,0.8-1.8,1.2c-0.7,0.3-1.4,0.6-2.2,0.7c-0.8,0.2-1.6,0.2-2.4,0.2c-1.7,0-3.3-0.4-4.7-1.1
		c-1.4-0.7-2.5-1.7-3.3-3s-1.2-2.8-1.2-4.4s0.4-3.1,1.2-4.4c0.8-1.3,1.9-2.3,3.2-3c1.4-0.7,2.9-1.1,4.6-1.1c1.4,0,2.7,0.2,3.8,0.6
		c1.1,0.4,2.1,1.1,2.8,2l-1.8,1.8c-0.6-0.7-1.4-1.2-2.2-1.5c-0.8-0.3-1.7-0.5-2.6-0.5c-1.2,0-2.3,0.3-3.2,0.8
		c-0.9,0.5-1.7,1.2-2.2,2.1s-0.8,2-0.8,3.1s0.3,2.2,0.8,3.1s1.3,1.6,2.2,2.2s2,0.8,3.2,0.8c0.9,0,1.8-0.1,2.6-0.4
		c0.8-0.3,1.5-0.7,2.2-1.3L336.1,342.8z M333.3,342.8v-6.5h2.7v6.5H333.3z M348.2,344.7v-16.5h6.8c1.5,0,2.7,0.2,3.8,0.7
		c1,0.4,1.9,1.1,2.4,2c0.6,0.9,0.9,1.9,0.9,3.1s-0.3,2.2-0.9,3.1s-1.4,1.5-2.4,2c-1,0.4-2.3,0.7-3.8,0.7h-5.2l1.3-1.3v6.2
		L348.2,344.7L348.2,344.7z M359.2,344.7l-4.3-6h3.1l4.3,6H359.2z M351,338.8l-1.1-1.3h4.8c1.4,0,2.5-0.3,3.3-0.9s1.1-1.5,1.1-2.6
		s-0.4-2-1.1-2.6s-1.8-0.9-3.3-0.9h-4.8l1.1-1.3V338.8z M370.6,344.7l7.6-16.5h2.8l7.6,16.5h-2.9l-6.6-15.1h1l-6.7,15.1H370.6z
		 M374.1,340.7l0.8-2.2h9.1l0.8,2.2H374.1z M398.4,344.7v-16.5h2.4l7.3,12.1H407l7.1-12.1h2.4v16.5h-2.7v-12.2h0.4l-6.1,10.2h-1.3
		l-6.3-10.2h0.6v12.2H398.4z M429.2,344.7v-16.5h2.4l7.3,12.1h-1.1l7.1-12.1h2.4v16.5h-2.7v-12.2h0.4l-6.1,10.2h-1.3l-6.3-10.2h0.6
		v12.2H429.2z M462.4,335.1h8.7v2.3h-8.7V335.1z M462.9,342.3h9.6v2.4H460v-16.5h12.1v2.3h-9.3L462.9,342.3L462.9,342.3z
		 M483.6,344.7v-16.5h6.8c1.5,0,2.7,0.2,3.8,0.7c1,0.4,1.9,1.1,2.4,2c0.6,0.9,0.9,1.9,0.9,3.1s-0.3,2.2-0.9,3.1s-1.4,1.5-2.4,2
		c-1,0.4-2.3,0.7-3.8,0.7h-5.2l1.3-1.3v6.2L483.6,344.7L483.6,344.7z M494.7,344.7l-4.3-6h3.1l4.3,6H494.7z M486.5,338.8l-1.1-1.3
		h4.8c1.4,0,2.5-0.3,3.3-0.9s1.1-1.5,1.1-2.6s-0.4-2-1.1-2.6s-1.8-0.9-3.3-0.9h-4.8l1.1-1.3V338.8z"/>
</g>
</svg>
